<svg width="556" height="458" viewBox="0 0 556 458" fill="none" xmlns="http://www.w3.org/2000/svg">
<path d="M34.8184 134.262C31.7138 141.129 28.7317 148.324 26.38 155.869C14.9904 191.456 13.7568 233.718 32.6717 284.423C33.7123 287.213 34.6917 289.838 35.8812 292.58C40.7966 304.416 46.7014 316.671 53.8058 329.462C56.2461 335.11 58.5987 340.97 60.7411 346.713C84.6755 410.874 87.6071 474.576 111.848 539.557C112.888 542.347 113.868 544.972 115.057 547.715C118.503 555.613 122.721 562.897 127.324 569.875C166.078 617.921 196.134 698.491 242.325 716.435C276.834 730.762 300.321 705.269 335.594 731.472C342.021 735.297 348.36 739.334 354.786 743.159C373.829 754.893 392.715 765.76 409.38 768.887C416.141 770.035 422.623 769.986 428.58 768.085C443.088 760.516 455.532 749.199 465.817 730.308C470.191 725.056 474.652 719.592 478.693 713.895C494.544 702.776 504.233 684.075 510.272 661.398C512.326 653.948 513.986 645.889 515.165 637.433C513.964 550.224 553.427 450.955 519.847 360.492C518.501 356.882 517.005 353.319 515.448 349.593C511.302 340.265 506.35 331.012 500.295 321.926C453.944 262.9 435.682 175.077 392.497 109.348C374.216 82.6799 354.21 56.7463 330.888 37.5632C323.929 30.9701 316.917 25.1283 309.615 20.2972C279.392 0.929631 255.755 26.4696 224.241 13.0231C217.331 11.923 210.456 11.3629 203.642 10.9669C199.429 10.8424 195.216 10.7179 190.916 10.805L188.98 11.4229C189.339 11.492 189.759 11.7251 190.267 11.7466C194.717 11.6119 199.078 11.6888 203.501 11.9299C210.105 12.2094 217.041 12.9336 223.89 13.8695C256.061 27.29 279.61 1.96176 309.054 21.0271C316.207 25.9058 323.368 31.7 330.117 38.1766C353.377 57.1956 373.384 83.1291 391.604 109.633C434.517 175.082 452.928 262.857 499.401 322.212C505.247 331.18 510.199 340.434 514.345 349.761C515.84 353.324 517.397 357.05 518.744 360.661C552.289 450.584 512.974 549.806 514.027 637.062C513.058 645.634 511.547 653.646 509.493 661.095C503.603 683.726 493.852 702.263 477.879 713.053C473.777 718.586 469.526 724.167 465.003 729.466C454.718 748.357 442.511 759.415 428.151 766.936C422.343 768.79 416.011 768.791 409.46 767.76C393.004 764.749 374.18 754.047 355.225 742.101C348.947 738.228 342.459 734.239 336.182 730.366C300.279 703.814 276.642 729.354 242.702 715.212C197.141 697.618 166.998 617.26 128.182 569.05C123.641 562.236 119.633 555.068 116.187 547.17C115.147 544.381 114.018 541.803 112.978 539.013C88.8597 474.36 85.8669 410.493 61.8713 346.169C59.7288 340.425 57.3763 334.565 54.8747 328.753C47.7704 315.963 41.8655 303.708 37.0114 292.036C35.8219 289.294 34.7813 286.504 33.8018 283.879C15.0094 233.502 16.1553 191.452 27.6061 156.029C29.9578 148.484 32.791 141.336 36.0445 134.422C44.0883 98.8008 57.0594 69.687 74.2213 48.2336L72.5831 48.7565C55.3335 70.4214 42.8092 99.3926 34.8184 134.262Z" fill="white"/>
<path d="M40.0415 167.535C29.1528 203.823 29.5216 248.057 49.5212 301.772C49.948 302.918 50.4359 304.228 50.8627 305.375C55.5231 317.446 61.1691 329.935 67.8614 343.006C83.9339 399.993 96.239 454.887 116.178 508.438C119.592 517.609 123.303 526.685 127.224 535.877L127.372 535.83L127.224 535.877C132.603 541.854 137.982 547.831 143.483 554.135C180.744 595.365 198.937 683.013 244.843 689.955C280.335 696.563 312.701 689.875 350.5 721.403C357.057 726.086 363.466 730.817 370.05 735.126C376.546 739.646 383.13 743.954 389.679 747.724C395.356 750.49 400.633 751.734 405.422 751.668C408.248 751.681 411.04 751.154 413.562 750.348C415.341 749.778 417.209 748.998 418.866 748.101C452.308 722.01 463.198 666.111 478.037 615.914C480.641 607.75 483.184 599.422 486.058 591.539C512.852 534.219 510.302 442.667 478.412 357.017C474.875 347.518 471.042 338.115 466.764 328.854C462.652 318.256 458.244 307.754 453.627 297.135C448.724 281.293 443.281 264.89 437.183 248.514C411.574 179.732 375.61 110.78 328.979 72.9142C321.542 66.313 314.052 60.4616 306.395 55.9464C291.021 46.7523 275.06 41.7779 258.765 42.5918C251.517 40.5116 244.33 38.5953 237.239 37.3814C231.874 36.3483 226.484 35.69 221.215 35.3593C215.886 34.8649 210.739 34.8616 205.592 34.8585C176.896 29.5593 148.423 29.3199 123.654 37.2428C85.2388 49.5305 55.7196 81.6982 47.756 145.458C44.8472 152.802 42.235 160.052 40.0415 167.535ZM123.418 37.5015C148.039 29.626 176.512 29.8654 205.208 35.1646C210.294 35.004 215.65 35.1235 220.831 35.6654C226.1 35.9961 231.403 36.8655 236.706 37.735C243.859 39.1126 251.133 40.8177 258.232 42.9453C274.528 42.1314 290.428 46.9421 305.802 56.1362C313.519 60.8151 320.948 66.5028 328.386 73.104C374.956 110.806 410.92 179.758 436.529 248.54C442.626 264.916 448.07 281.319 452.972 297.161C457.887 307.685 462.356 318.351 466.407 328.785C470.685 338.046 474.518 347.45 478.054 356.948C509.944 442.598 512.433 533.986 485.727 591.095C482.914 599.142 480.31 607.306 477.828 615.797C462.989 665.995 452.099 721.893 418.745 747.774C417.087 748.67 415.219 749.451 413.44 750.02C410.918 750.827 408.275 751.306 405.3 751.341C400.45 751.243 395.382 750.115 389.705 747.349C383.095 743.415 376.572 739.271 370.076 734.751C363.58 730.231 357.022 725.548 350.526 721.028C312.518 689.384 280.064 696.283 244.722 689.627C199.173 682.754 180.831 595.154 143.57 553.924C138.218 547.572 132.69 541.643 127.46 535.619C123.6 526.59 119.828 517.35 116.413 508.179C96.4747 454.628 84.3179 399.687 68.0971 342.747C61.4047 329.676 55.7588 317.187 51.0983 305.116C50.6715 303.97 50.1837 302.659 49.7569 301.513C29.7573 247.798 29.4495 203.728 40.3381 167.44C42.5317 159.958 45.1438 152.708 47.695 145.294C55.7806 81.8619 85.1515 49.7418 123.418 37.5015Z" fill="white"/>
<path d="M274.796 316.769C274.497 316.864 274.198 316.959 273.9 317.054C267.662 319.594 266.473 324.019 268.131 328.456C268.253 328.785 268.315 328.949 268.437 329.278C274.011 336.145 283.68 352.189 291.806 349.783C292.403 349.593 293.089 349.191 293.774 348.788C296.35 345.393 295.729 339.705 293.704 334.282C290.082 324.586 281.578 314.791 274.796 316.769ZM293.405 334.377C295.492 339.965 295.84 345.371 293.563 348.671C293.027 349.026 292.342 349.429 291.744 349.619C284.128 352.046 274.371 336.214 268.798 329.347C268.736 329.183 268.613 328.854 268.491 328.525C266.895 324.252 267.995 320.04 274.084 317.547L274.022 317.383L274.084 317.547C274.382 317.452 274.681 317.357 274.98 317.262C278.116 316.262 281.848 318.199 285.262 321.525C288.616 324.686 291.625 329.611 293.405 334.377Z" fill="white"/>
<path d="M50.0602 280.687C56.2387 297.255 65.0248 315.009 77.1361 334.088C79.9847 342.174 82.9822 350.211 85.8309 358.297C86.7485 360.757 87.6049 363.054 88.5225 365.514C100.268 397.009 109.379 427.693 114.217 461.21L114.366 461.163L114.217 461.21C114.217 461.21 114.217 461.21 114.278 461.374C122.353 483.027 132.687 503.592 144.474 523.141C148.383 529.603 152.44 536.018 156.795 542.337C204.233 636.047 273.674 700.337 336.967 694.998C342.91 695.303 348.547 694.788 353.939 693.617C356.443 693.185 358.973 692.378 361.354 691.617C369.539 689.004 377.323 684.867 384.651 679.957C390.465 675.898 396.096 671.346 401.631 666.091C405.143 661.666 408.865 657.357 412.649 653.212C432.241 631.169 456.05 613.288 470.825 583.238C473.725 577.172 476.294 570.662 478.407 563.378C488.156 505.562 486.802 441.195 469.197 372.104C466.813 362.585 464.07 352.997 460.968 343.341C458.479 335.324 455.691 327.403 452.755 319.529C452.143 317.889 451.531 316.249 450.92 314.608C448.089 305.232 444.961 295.951 441.807 287.045C418.657 225.415 383.664 164.629 343.639 118.482C337.577 111.607 331.192 105.201 324.841 99.3355C305.761 82.114 285.392 70.8115 264.456 69.6023C257.035 67.5661 249.5 66.1169 242.06 65.3715C237.011 64.781 232.083 64.5186 227.278 64.5843C222.411 64.4859 217.457 64.599 212.564 64.8762C182.835 58.3976 153.996 57.8765 128.994 65.8591C91.044 77.9757 61.6868 109.56 50.099 168.698C46.9354 175.399 44.3406 182.285 42.3494 189.896C35.8579 214.915 36.7856 245.091 50.0602 280.687ZM50.6943 168.508C62.2821 109.37 91.5516 77.997 129.352 65.928C154.355 57.9453 183.045 58.5142 212.774 64.9928C217.667 64.7156 222.621 64.6023 227.637 64.6532C232.503 64.7516 237.431 65.014 242.419 65.4405C249.859 66.1859 257.245 67.6826 264.815 69.6714C285.75 70.8805 305.91 82.0665 324.989 99.288C331.279 104.99 337.665 111.395 343.726 118.271C383.691 164.253 418.683 225.039 441.833 286.67C444.988 295.575 447.967 304.904 451.007 314.397C451.619 316.037 452.231 317.677 452.843 319.318C455.84 327.356 458.627 335.277 461.056 343.129C464.097 352.622 466.839 362.209 469.223 371.728C486.828 440.82 488.183 505.187 478.434 563.003C476.32 570.286 473.752 576.797 470.851 582.863C456.226 612.865 432.417 630.746 412.824 652.789C408.892 656.981 405.17 661.29 401.806 665.668C396.21 670.759 390.641 675.475 384.765 679.37C377.349 684.491 369.653 688.417 361.468 691.03C359.087 691.79 356.496 692.434 354.053 693.03C348.661 694.201 342.963 694.552 337.081 694.411C273.937 699.702 204.706 635.529 157.181 542.031C152.974 535.664 148.768 529.297 144.798 522.671C132.923 503.333 122.738 482.721 114.664 461.068C109.825 427.551 100.714 396.867 88.969 365.372C88.0514 362.911 87.195 360.615 86.2774 358.154C83.2799 350.116 80.4312 342.031 77.5825 333.946C65.6201 314.819 56.6852 297.112 50.5679 280.708C37.2933 245.112 36.4267 215.1 43.1546 189.822C44.9359 182.095 47.5307 175.208 50.6943 168.508Z" fill="white"/>
<path d="M168.56 517.804C172.679 524.382 176.736 530.796 181.091 537.115C191.321 552.939 201.097 567.99 213.369 578.572C251.312 602.619 284.985 609.856 320.625 650.056C326.512 654.234 332.269 657.168 337.782 659.447C350.031 664.163 361.225 664.26 371.493 660.981C375.064 659.841 378.662 658.325 381.927 656.365C387.513 653.48 392.372 649.542 397.346 645.017C401.506 639.65 405.666 634.284 409.826 628.917C413.987 623.55 418.234 617.972 422.334 612.442C430.454 599.386 439.08 589.473 445.232 576.495C448.666 570.075 451.768 563.211 454.599 556.066C457.43 548.921 459.929 541.332 461.885 533.181C470.398 507.334 472.518 474.168 464.777 436.44C463.355 427.716 461.514 418.758 459.314 409.732C455.097 392.172 449.716 374.617 443.293 357.393C443.11 356.901 442.926 356.409 442.743 355.917C439.923 344.336 436.656 332.897 432.969 321.225C430.698 314.24 428.278 307.304 425.709 300.414C423.935 295.657 422.012 290.948 420.09 286.239C415.239 274.571 409.969 262.671 404.042 250.796C394.863 232.434 385.149 217.547 374.384 202.077C369.881 195.806 365.438 189.698 360.908 183.802C342.849 160.383 324.045 140.321 303.801 126.226C296.505 121.397 289.156 117.319 281.754 113.992C269.557 108.525 257.35 105.264 245.37 103.95C239.454 103.269 233.363 103.011 227.543 103.033C202.367 98.0393 178.553 98.4841 157.72 105.136C118.584 117.632 89.4639 152.078 77.7878 214.545C75.4644 221.711 73.7445 229.603 72.8645 237.96C70.5238 259.817 73.7996 285.571 85.3602 316.572C87.0729 321.165 89.0567 326.038 91.1894 330.864C93.3549 339.351 95.8792 347.906 98.6134 356.578C101.348 365.25 104.292 374.039 107.385 382.78C110.478 391.521 113.632 400.426 116.997 409.448L117.443 409.305L116.997 409.448C131.581 448.111 148.389 485.146 168.56 517.804ZM108.278 382.495C105.185 373.754 102.241 364.965 99.5063 356.293C96.772 347.621 94.2477 339.066 92.021 330.415C89.8272 325.425 87.9046 320.716 86.1919 316.123C74.6924 285.286 71.4778 259.696 73.7308 238.051C74.6109 229.693 76.2431 222.013 78.5665 214.847C90.0938 152.427 119.187 118.357 158.026 105.956C178.71 99.3518 202.375 98.9544 227.551 103.949C233.52 103.878 239.462 104.184 245.378 104.865C257.21 106.227 269.416 109.488 281.403 114.838C288.744 118.001 295.945 122.127 303.39 126.909C323.423 140.887 342.167 160.784 360.225 184.204C364.755 190.1 369.198 196.207 373.64 202.315C384.405 217.785 393.97 232.719 403.237 250.87C409.164 262.744 414.522 274.433 419.284 286.312C421.207 291.022 422.981 295.779 424.755 300.535C427.324 307.425 429.744 314.361 432.015 321.346C435.702 333.018 438.968 344.457 441.789 356.038C441.972 356.53 442.217 357.186 442.4 357.679C448.762 374.738 454.204 392.457 458.36 409.853C460.56 418.88 462.401 427.837 463.823 436.561C471.502 474.125 469.47 507.08 460.896 532.762C458.879 540.749 456.38 548.339 453.61 555.647C450.779 562.792 447.677 569.657 444.243 576.077C438.179 588.843 429.465 598.967 421.345 612.023C417.246 617.554 413.147 623.084 408.987 628.451C404.826 633.818 400.666 639.184 396.506 644.551C391.83 648.981 386.76 652.802 381.534 655.756C378.119 657.764 374.67 659.232 371.099 660.373C360.831 663.651 349.787 663.507 337.896 658.86C332.445 656.745 326.836 653.763 320.949 649.586C285.037 609.105 251.365 601.868 213.632 577.938C201.57 567.472 191.916 552.749 181.625 536.761C177.27 530.442 173.213 524.028 169.095 517.45C148.923 484.792 132.325 447.873 117.741 409.21C114.586 400.305 111.432 391.4 108.278 382.495Z" fill="white"/>
<path d="M152.773 436.68L152.922 436.632L152.773 436.68C156.066 443.715 159.447 450.538 162.855 456.985C166.262 463.432 169.696 469.503 173.069 475.41C177.502 482.816 181.962 489.846 186.448 496.5C190.934 503.155 195.596 509.385 200.074 515.123C223.209 543.576 250.133 571.004 277.806 578.532C285.346 582.191 293 585.262 300.558 587.629C326.802 595.796 352.944 596.094 375.908 588.77C399.469 581.255 419.727 565.79 433.905 542.525C437.075 535.817 439.552 528.596 441.215 520.532C442.736 513.431 443.775 505.933 444.333 498.038C444.89 490.143 444.904 481.686 444.497 472.995C440.01 452.927 442.685 437.741 436.664 416.692C434.452 406.74 432.029 396.672 429.035 386.418C424.774 371.423 419.793 356.29 414.093 341.019C408.025 324.763 401.089 308.416 393.706 292.212C389.634 281.75 385.15 271.972 380.104 262.923C374.419 252.609 368.294 243.353 361.555 235.58C330.249 203.119 298.292 144.771 268.519 143.242C263.433 143.027 258.408 142.976 253.233 142.973C248.059 142.969 242.946 143.13 237.684 143.338C215.306 139.267 193.504 139.422 174.567 145.462C136.989 157.448 110.264 192.249 110.521 260.891C109.753 268.669 109.406 276.681 109.541 285.091C109.677 293.5 110.084 302.191 111.122 311.231C112.213 319.519 113.874 327.993 115.983 336.325C118.774 347.379 122.52 358.311 126.627 369.313C133.614 388.032 141.767 406.747 148.693 425.302C150.103 429.079 151.512 432.856 152.773 436.68ZM127.074 369.17C122.968 358.169 119.221 347.236 116.43 336.182C114.321 327.851 112.66 319.377 111.569 311.088C110.531 302.048 110.124 293.358 109.989 284.948C109.854 276.539 110.2 268.527 110.968 260.748C110.773 192.27 137.261 157.729 174.689 145.791C193.627 139.751 215.218 139.479 237.596 143.55C242.859 143.342 247.971 143.181 253.146 143.185C258.32 143.188 263.345 143.239 268.431 143.454C297.634 144.798 329.828 202.885 361.196 235.511C367.935 243.284 374.059 252.54 379.745 262.854C384.642 271.95 389.126 281.729 393.347 292.143C400.879 308.299 407.666 324.694 413.672 340.786C419.372 356.057 424.353 371.19 428.615 386.184C431.459 396.486 434.031 406.507 436.244 416.459C442.203 437.344 439.677 452.482 444.015 472.598C444.422 481.288 444.408 489.745 443.851 497.641C443.293 505.536 442.254 513.034 440.882 520.087C439.219 528.151 436.742 535.372 433.721 542.032C419.631 565.085 399.372 580.551 375.961 588.018C352.997 595.342 327.004 594.997 300.822 586.994C293.264 584.627 285.671 581.72 278.07 577.896C250.458 570.533 223.683 543.058 200.548 514.605C196.008 508.702 191.408 502.636 186.922 495.982C182.436 489.327 177.976 482.297 173.543 474.891C170.021 469.032 166.736 462.913 163.328 456.466C159.921 450.019 156.601 443.36 153.396 436.114C152.135 432.289 150.726 428.513 149.316 424.736C142.215 406.604 134.061 387.89 127.074 369.17Z" fill="white"/>
<path d="M163.536 426.042C169.255 435.987 175.571 445.742 182.036 455.449C201.176 486.122 223.392 512.505 246.201 531.528C253.775 537.94 261.49 543.387 269.047 547.965C296.78 568.544 319.672 566.764 341.47 559.815C354.459 555.675 366.922 549.679 379.911 545.539C387.376 543.16 394.876 541.321 402.568 540.891C402.717 540.844 402.717 540.844 402.717 540.844L402.866 540.796C408.092 539.13 412.896 537.231 417.244 534.558C430.587 526.444 438.779 511.697 436.602 482.603C433.852 456.451 426.642 430.433 416.947 404.471C400.686 360.929 377.242 317.837 355.044 276.738C348.133 264.048 340.756 252.793 333.298 242.666C313.164 214.7 291.075 195.815 269.148 184.969C261.81 181.425 254.568 178.585 247.395 176.826C228.293 170.412 208.16 169.291 190.692 174.859C165.311 182.949 145.445 204.911 141.399 244.63C140.358 252.133 139.528 259.752 139.058 267.441C138.438 275.177 137.968 282.866 137.41 290.766C137.298 301.65 137.607 312.768 138.637 324.024C140.646 354.458 148.914 388.229 160.327 418.791C161.248 421.256 162.107 423.556 163.027 426.021L163.475 425.878L163.536 426.042ZM139.207 324.21C138.327 312.906 137.869 301.836 137.981 290.952C138.6 283.216 139.009 275.363 139.69 267.791C140.309 260.055 140.929 252.319 142.031 244.98C146.138 205.425 166.005 183.464 191.087 175.468C208.405 169.948 228.328 170.952 247.579 177.319C254.752 179.078 261.994 181.918 269.333 185.462C291.26 196.308 313.348 215.193 333.421 242.995C340.878 253.121 348.106 264.424 355.167 277.067C377.304 318.001 400.747 361.093 417.008 404.636C426.703 430.597 433.764 456.662 436.663 482.768C438.99 511.813 430.674 526.232 417.481 534.299C413.133 536.972 408.329 538.871 403.104 540.537C402.954 540.584 402.954 540.584 402.805 540.632C394.964 541.109 387.464 542.948 379.999 545.327C367.01 549.468 354.336 555.346 341.496 559.439C319.699 566.387 296.956 568.121 269.284 547.706C261.727 543.128 254.012 537.68 246.438 531.269C223.63 512.246 201.352 485.698 182.274 455.189C175.659 445.53 169.431 435.563 163.624 425.83C162.765 423.53 161.696 421.113 160.836 418.813C149.485 388.415 141.217 354.644 139.207 324.21Z" fill="white"/>
<path d="M195.745 404.319L195.36 404.625C220.848 443.091 244.771 496.552 277.504 511.601C282.925 514.09 288.005 515.22 292.719 515.366C297.433 515.511 301.989 514.79 306.424 513.74C309.923 511.522 313.457 509.842 317.175 508.655C338.884 501.72 364.021 511.123 390.333 515.195C393.35 515.7 396.123 515.548 398.502 514.788C400.583 514.123 402.482 512.966 404.258 511.481C414.758 501.705 415.752 476.25 406.706 451.982C402.916 441.817 399.065 431.487 395.066 421.204C391.215 410.874 387.067 400.639 382.919 390.404C381.478 386.094 379.977 381.619 378.387 377.356C348.926 298.324 292.85 224.674 244.46 213.157C237.107 211.286 230.006 210.985 223.096 212.091C220.892 212.428 218.898 212.882 216.816 213.547C192.133 221.431 178.343 250.057 172.673 286.181C171.172 295.101 170.423 304.698 170.243 314.481C170.153 334.326 173.027 355.427 180.606 375.759C184.274 385.597 189.043 395.267 195.063 404.72L195.745 404.319ZM171.406 314.476C171.438 304.741 172.397 295.26 173.748 286.388C179.331 250.475 193.033 222.061 217.332 214.483C219.265 213.866 221.259 213.412 223.463 213.075C230.224 212.016 237.325 212.317 244.469 214.072C292.29 225.403 348.244 298.725 377.644 377.593C379.233 381.857 380.883 386.284 382.324 390.594C386.472 400.829 390.471 411.112 394.471 421.394C398.322 431.724 402.172 442.054 405.962 452.22C414.886 476.159 413.831 501.451 403.655 510.757C402.027 512.194 400.278 513.303 398.345 513.921C396.114 514.633 393.491 514.737 390.684 514.349C364.581 510.393 339.234 500.874 317.227 507.904C313.51 509.091 309.976 510.771 306.328 513.037C302.103 514.203 297.695 514.877 292.921 514.567C288.207 514.421 283.275 513.244 277.916 510.919C245.812 496.219 221.74 442.806 196.253 404.34C190.294 395.051 185.524 385.381 181.918 375.707C174.129 355.259 171.106 334.205 171.406 314.476Z" fill="white"/>
<path d="M206.348 378.523C207.239 381.359 208.279 384.147 209.318 386.935C242.403 475.665 327.214 506.213 372.144 491.865C377.764 486.399 381.496 479.885 383.906 472.508C386.317 465.131 387.345 456.727 387.027 447.835C386.857 438.896 385.34 429.47 382.983 419.577C380.241 409.991 376.93 400.219 373.261 390.379C350.573 329.531 312.363 268.134 271.617 249.944C257.595 243.593 243.85 241.558 231.844 243.74C229.849 244.194 227.854 244.647 225.92 245.265C216.25 248.353 208.039 254.462 201.585 263.497C193.835 274.415 188.988 289.545 187.97 309.141C186.64 323.882 191.05 339.726 196.798 355.143C199.944 363.132 203.238 371.074 206.348 378.523ZM188.478 309.163C189.408 289.778 194.404 274.601 202.005 263.73C208.31 254.743 216.582 248.797 226.103 245.757C228.037 245.139 229.884 244.733 231.879 244.28C243.885 242.097 257.42 244.016 271.442 250.367C311.768 268.324 350.188 329.837 372.815 390.521C376.484 400.362 379.795 410.133 382.475 419.555C384.832 429.448 386.349 438.875 386.519 447.814C386.838 456.705 385.748 464.946 383.337 472.323C380.927 479.7 377.196 486.214 371.663 491.468C349.496 498.547 317.203 494.543 286.256 477.629C255.457 460.667 226.066 430.959 209.616 386.84C208.576 384.052 207.537 381.264 206.646 378.428L206.497 378.476L206.646 378.428C203.684 370.931 200.241 363.037 197.245 355.001C191.645 339.536 187.087 323.739 188.478 309.163Z" fill="white"/>
<path d="M346.871 464.731C348.947 464.066 350.814 463.286 352.62 462.342C370.026 452.925 366.185 426.115 355.298 396.427C345.482 370.062 329.815 341.354 317.85 320.808C295.666 278.607 261.238 247.653 235.075 255.839C231.368 257.025 227.817 259.077 224.509 261.784C205.861 278.562 200.19 312.813 212.651 352.077C214.096 357.296 215.838 362.42 217.667 367.333C244.345 439.434 309.646 476.638 346.871 464.731ZM218.024 367.401C216.195 362.489 214.454 357.365 213.009 352.146C200.461 313.093 206.34 278.959 224.753 262.439C227.999 259.568 231.463 257.727 235.171 256.541C260.976 248.287 295.343 279.077 317.318 321.161L317.466 321.114L317.318 321.161C329.283 341.708 344.889 370.252 354.705 396.617C365.679 426.094 369.25 452.624 352.289 461.898C350.483 462.842 348.468 463.67 346.54 464.287C328.001 470.217 302.571 463.874 278.445 447.218C254.258 430.398 231.376 403.264 218.024 367.401Z" fill="white"/>
<path d="M332.311 438.675C335.276 437.727 337.998 436.123 340.624 433.817C352.541 423.041 348.012 395.722 337.772 368.215C331.86 352.332 324.134 336.481 316.285 323.417C294.95 285.717 265.855 264.608 242.727 272.008C239.317 273.099 236.002 274.892 232.871 277.177C223.352 286.819 212.758 302.485 219.768 321.314C220.499 323.279 221.44 325.36 222.677 327.347C248.121 375.642 298.743 449.232 332.311 438.675ZM220.273 321.336C213.386 302.834 223.832 287.215 233.202 277.621C236.272 275.172 239.499 273.59 242.909 272.499C265.741 265.194 294.566 286.023 315.901 323.723L316.049 323.676L315.901 323.723C323.689 336.623 331.476 352.638 337.328 368.357C347.567 395.864 351.887 423.067 340.293 433.373C337.667 435.679 334.884 437.119 332.067 438.02C299.066 448.762 248.357 375.384 222.973 327.252C221.945 325.382 221.005 323.301 220.273 321.336Z" fill="white"/>
<path d="M317.266 384.89C323.73 378.97 322.467 364.859 317.627 351.889C316.796 349.215 315.965 346.541 314.985 343.914C306.346 320.766 290.859 300.721 273.78 289.819C267.478 287.237 262.034 286.952 257.414 288.426C250.855 290.519 245.583 296.059 241.318 303.849C238.788 311.821 239.43 323.374 243.535 334.374C245.741 340.284 248.902 346.073 253.221 350.942C269.012 374.931 293.275 393.462 311.373 387.872C313.311 387.254 315.275 386.26 317.266 384.89ZM253.607 350.635L253.37 350.894L253.607 350.635C249.437 345.719 246.276 339.93 244.131 334.184C240.088 323.348 239.507 311.959 241.949 304.199C246.275 296.573 251.31 291.292 257.72 289.247C262.341 287.773 267.486 288.152 273.578 290.618C290.385 301.24 305.811 321.12 314.388 344.104C315.369 346.731 316.2 349.405 317.031 352.08C321.81 364.885 322.862 378.879 316.81 384.117C314.968 385.439 313.004 386.433 311.066 387.051C293.329 392.71 269.337 374.46 253.607 350.635Z" fill="white"/>
<path d="M301.792 353.567C302.606 348.176 301.406 340.498 298.481 332.638C295.129 323.633 289.753 314.542 283.19 308.946C276.357 303.07 269.435 300.52 264.543 302.086C260.688 303.319 258.105 307.077 257.866 313.567C258.377 320.733 262.121 330.346 264.933 338.791L265.081 338.743L264.933 338.791C274.109 350.514 287.495 364.188 295.858 361.696C298.379 360.889 300.525 358.187 301.792 353.567ZM295.736 361.368C287.73 363.93 274.405 350.419 265.23 338.696C262.208 330.134 258.673 320.638 258.075 313.683C258.375 307.357 260.871 303.81 264.577 302.624C269.322 301.106 276.034 303.539 282.868 309.416C289.282 315.059 294.806 324.103 298.097 332.944C300.962 340.64 302.309 348.271 301.434 353.498C300.168 358.118 298.257 360.562 295.736 361.368Z" fill="white"/>
</svg>
