<svg width="276" height="330" viewBox="0 0 276 330" fill="none" xmlns="http://www.w3.org/2000/svg">
<g clip-path="url(#clip0_75_5239)">
<path d="M-12.1002 -275.712C-15.7875 -268.748 -19.366 -261.465 -22.3021 -253.865C-36.4633 -218.008 -40.3384 -176.034 -23.514 -126.684C-22.5884 -123.968 -21.7173 -121.413 -20.632 -118.753C-16.1782 -107.257 -10.7081 -95.3957 -4.00765 -83.0627C-1.78258 -77.5818 0.337227 -71.8868 2.24289 -66.297C23.532 -3.8504 22.7354 59.1816 44.2967 122.427C45.2223 125.142 46.0935 127.697 47.1788 130.358C50.3258 138.02 54.3221 145.036 58.7431 151.728C96.6186 197.459 123.352 275.876 170.892 291.385C206.353 303.885 232.637 277.44 268.178 301.68C274.712 305.156 281.14 308.845 287.673 312.321C307.008 323.015 326.23 332.857 343.586 335.134C350.635 335.937 357.462 335.568 363.85 333.388C379.587 325.163 393.379 313.323 405.359 294.079C410.285 288.653 415.315 283.013 419.917 277.163C437.284 265.352 448.626 246.325 456.367 223.535C458.983 216.045 461.222 207.97 462.979 199.526C467.03 113.096 514.632 12.6915 484.791 -75.3631C483.593 -78.8767 482.236 -82.3359 480.824 -85.9547C477.027 -94.9998 472.377 -103.932 466.555 -112.642C421.351 -168.887 407.477 -255.082 366.015 -318.131C348.393 -343.673 328.909 -368.403 305.523 -386.273C298.598 -392.467 291.571 -397.913 284.177 -402.343C253.536 -420.055 227.093 -393.555 194.731 -405.33C187.523 -406.079 180.318 -406.294 173.168 -406.35C168.74 -406.264 164.312 -406.179 159.779 -405.88L157.703 -405.171C158.077 -405.121 158.505 -404.91 159.039 -404.914C163.732 -405.268 168.319 -405.408 172.961 -405.388C179.897 -405.437 187.157 -405.062 194.31 -404.473C227.365 -392.756 253.703 -419.042 283.542 -401.591C290.776 -397.107 297.963 -391.715 304.674 -385.626C328.005 -367.916 347.489 -343.187 365.057 -317.803C406.25 -255.019 420.284 -168.879 465.597 -112.315C471.205 -103.71 475.855 -94.7779 479.651 -85.7328C481.009 -82.2737 482.421 -78.6549 483.619 -75.1413C513.456 12.3797 466.014 112.73 461.803 199.214C460.261 207.764 458.181 215.784 455.564 223.274C447.983 246.009 436.587 264.876 419.111 276.369C414.455 282.059 409.638 287.804 404.554 293.284C392.573 312.528 379.046 324.099 363.469 332.27C357.241 334.396 350.573 334.71 343.739 334.012C326.596 331.84 307.429 322.158 288.199 311.249C281.826 307.72 275.238 304.085 268.864 300.555C232.681 275.999 206.237 302.498 171.364 290.154C124.467 274.961 97.6276 196.758 59.6976 150.867C55.3311 144.335 51.549 137.424 48.4019 129.762C47.4763 127.047 46.4454 124.546 45.5198 121.831C24.0674 58.9052 24.8095 -4.28647 3.46602 -66.8927C1.56034 -72.4826 -0.55943 -78.1776 -2.83895 -83.8182C-9.53943 -96.1512 -15.0095 -108.013 -19.4088 -119.348C-20.4941 -122.009 -21.4198 -124.724 -22.2909 -127.279C-39.0064 -176.31 -35.2366 -218.07 -21.0209 -253.768C-18.0848 -261.367 -14.666 -268.596 -10.8189 -275.615C-0.178265 -311.34 15.2535 -340.856 34.6308 -362.982L32.8742 -362.383C13.3916 -340.042 -1.56111 -310.69 -12.1002 -275.712Z" fill="white"/>
<path d="M-9.16412 -244.089C-22.8936 -207.487 -25.2079 -163.55 -7.34888 -111.165C-6.96774 -110.047 -6.53215 -108.769 -6.15102 -107.651C-1.96217 -95.8869 3.24298 -83.7565 9.51886 -71.1002C23.0262 -15.2684 32.6788 38.6699 50.4833 90.8952C53.5324 99.839 56.9009 108.674 60.4836 117.614L60.6432 117.559L60.4836 117.614C65.8046 123.286 71.1257 128.958 76.5557 134.949C113.426 174.07 127.301 260.265 175.407 264.883C212.523 269.686 247.148 261.433 285.18 290.885C291.826 295.214 298.312 299.597 305.008 303.551C311.6 307.72 318.296 311.674 324.989 315.095C330.822 317.562 336.325 318.536 341.391 318.233C344.379 318.105 347.362 317.443 350.077 316.516C351.993 315.862 354.015 314.994 355.822 314.02C392.77 286.431 407.701 230.342 426.457 179.722C429.708 171.48 432.906 163.078 436.426 155.102C468.255 96.8097 471.156 5.95806 442.68 -77.5706C439.522 -86.8338 436.045 -95.988 432.088 -104.979C428.389 -115.305 424.371 -125.523 420.139 -135.846C415.924 -151.345 411.173 -167.375 405.728 -183.346C382.86 -250.424 349.056 -317.157 302.074 -352.47C294.615 -358.66 287.054 -364.103 279.236 -368.209C263.545 -376.582 246.976 -380.732 229.7 -379.114C222.165 -380.821 214.684 -382.368 207.262 -383.222C201.654 -383.983 195.995 -384.369 190.446 -384.436C184.842 -384.663 179.401 -384.41 173.96 -384.158C143.948 -387.998 113.862 -386.822 87.1927 -377.718C45.8308 -363.599 12.6577 -330.167 0.341001 -266.411C-3.18306 -258.968 -6.38776 -251.634 -9.16412 -244.089ZM86.9277 -377.449C113.438 -386.498 143.523 -387.675 173.536 -383.834C178.922 -384.247 184.577 -384.394 190.021 -384.113C195.571 -384.046 201.124 -383.445 206.677 -382.845C214.154 -381.831 221.74 -380.498 229.115 -378.736C246.392 -380.355 262.906 -376.364 278.597 -367.991C286.47 -363.725 293.976 -358.442 301.435 -352.252C348.362 -317.099 382.166 -250.366 405.035 -183.288C410.479 -167.316 415.231 -151.287 419.445 -135.787C423.997 -125.574 428.07 -115.196 431.714 -105.029C435.671 -96.0387 439.148 -86.8845 442.306 -77.6213C470.782 5.90737 467.827 96.5993 436.103 154.677C432.637 162.814 429.385 171.055 426.242 179.617C407.486 230.237 392.556 286.326 355.713 313.701C353.906 314.674 351.884 315.543 349.968 316.197C347.253 317.124 344.429 317.731 341.283 317.914C336.161 318.057 330.873 317.188 325.04 314.721C318.293 311.141 311.651 307.346 305.059 303.177C298.468 299.009 291.822 294.68 285.231 290.511C246.985 260.954 212.254 269.421 175.298 264.563C127.566 259.996 113.531 173.856 76.661 134.735C71.3907 128.689 65.9099 123.072 60.7485 117.345C57.2203 108.565 53.7974 99.5703 50.7483 90.6265C32.9437 38.4011 23.4508 -15.5916 9.78383 -71.3689C3.50793 -84.0253 -1.69721 -96.1556 -5.88606 -107.92C-6.26719 -109.038 -6.70278 -110.315 -7.08392 -111.433C-24.9429 -163.818 -22.5742 -207.596 -8.84472 -244.198C-6.06833 -251.743 -2.86367 -259.077 0.286544 -266.571C12.7122 -330.007 45.7255 -363.385 86.9277 -377.449Z" fill="white"/>
<path d="M-5.68047 -132.418C-0.181243 -116.287 7.993 -99.1083 19.5899 -80.78C22.0981 -72.8997 24.7661 -65.0738 27.2743 -57.1935C28.091 -54.7979 28.8533 -52.562 29.67 -50.1663C40.124 -19.502 47.8522 10.4881 50.9057 43.5003L51.0653 43.4458L50.9057 43.5003C50.9057 43.5003 50.9057 43.5003 50.9601 43.66C58.1472 64.7417 67.7806 84.6319 79.0073 103.443C82.7314 109.66 86.6152 115.823 90.8183 121.877C135.083 212.496 204.326 272.838 271.337 264.405C277.58 264.414 283.551 263.624 289.303 262.195C291.967 261.642 294.682 260.715 297.237 259.843C306.021 256.845 314.474 252.355 322.495 247.121C328.868 242.806 335.078 238.011 341.23 232.524C345.201 227.959 349.385 223.5 353.624 219.2C375.611 196.361 401.787 177.442 419.186 146.898C422.612 140.736 425.715 134.149 428.386 126.819C442.184 68.977 444.683 5.18563 430.348 -62.4875C428.416 -71.8128 426.111 -81.1888 423.432 -90.6155C421.298 -98.4452 418.844 -106.166 416.231 -113.832C415.686 -115.429 415.142 -117.026 414.597 -118.623C412.187 -127.785 409.457 -136.838 406.677 -145.517C386.045 -205.513 352.884 -264.085 313.527 -307.884C307.56 -314.405 301.223 -320.444 294.889 -325.948C275.837 -342.089 255.065 -352.293 233.081 -352.455C225.386 -354.108 217.536 -355.172 209.743 -355.543C204.459 -355.879 199.283 -355.895 194.216 -355.592C189.095 -355.448 183.868 -355.091 178.696 -354.573C147.769 -359.528 117.415 -358.616 90.586 -349.458C49.8632 -335.557 17.0061 -302.768 1.19043 -243.524C-2.5514 -236.719 -5.70522 -229.759 -8.26743 -222.109C-16.6327 -196.967 -17.4956 -167.075 -5.68047 -132.418ZM1.82923 -243.742C17.6449 -302.986 50.3967 -335.561 90.9598 -349.407C117.789 -358.566 147.983 -359.423 178.91 -354.468C184.082 -354.985 189.309 -355.343 194.59 -355.541C199.711 -355.685 204.887 -355.668 210.117 -355.492C217.91 -355.121 225.601 -354.002 233.455 -352.404C255.439 -352.242 275.997 -342.143 295.049 -326.003C301.328 -320.658 307.665 -314.62 313.633 -308.098C352.934 -264.459 386.096 -205.887 406.728 -145.891C409.508 -137.212 412.078 -128.104 414.703 -118.837C415.247 -117.24 415.791 -115.643 416.336 -114.046C419.004 -106.22 421.458 -98.4997 423.538 -90.8298C426.162 -81.5628 428.467 -72.1867 430.398 -62.8614C444.733 4.81172 442.235 68.6031 428.437 126.445C425.766 133.776 422.663 140.362 419.237 146.524C401.997 177.013 375.822 195.933 353.835 218.771C349.436 223.126 345.251 227.585 341.44 232.095C335.234 237.423 329.079 242.377 322.651 246.533C314.525 251.981 306.177 256.257 297.393 259.255C294.838 260.127 292.069 260.894 289.459 261.607C283.707 263.036 277.682 263.666 271.493 263.817C204.641 272.195 135.613 211.959 91.243 121.553C87.1995 115.445 83.156 109.337 79.3775 102.96C68.0455 84.3631 58.5718 64.4185 51.3847 43.3368C48.3313 10.3246 40.6031 -19.6655 30.1491 -50.3298C29.3324 -52.7255 28.5702 -54.9614 27.7534 -57.3571C25.0855 -65.1829 22.5773 -73.0632 20.069 -80.9435C8.63179 -99.3264 0.297879 -116.451 -5.1469 -132.422C-16.9621 -167.079 -16.0447 -196.811 -7.41451 -222.222C-5.06644 -229.977 -1.9126 -236.937 1.82923 -243.742Z" fill="white"/>
<path d="M105.057 97.2271C108.995 103.549 112.879 109.712 117.082 115.766C126.897 130.958 136.28 145.407 148.566 155.298C187.079 177.276 222.119 182.788 257.221 220.907C263.17 224.76 269.057 227.386 274.727 229.373C287.347 233.446 299.135 232.987 310.155 229.226C313.987 227.918 317.871 226.235 321.431 224.129C327.493 220.99 332.853 216.842 338.37 212.106C343.081 206.576 347.792 201.045 352.503 195.514C357.214 189.984 362.03 184.239 366.686 178.549C376.039 165.193 385.734 154.931 393.007 141.75C397.017 135.211 400.704 128.246 404.123 121.017C407.542 113.788 410.638 106.135 413.196 97.9511C423.743 71.8857 427.999 38.8744 422.144 1.82646C421.178 -6.75868 419.784 -15.5542 418.016 -24.4004C414.644 -41.6137 410.045 -58.7649 404.328 -75.5344C404.164 -76.0136 404.001 -76.4927 403.838 -76.9718C401.573 -88.3227 398.828 -99.5101 395.656 -110.908C393.688 -117.725 391.561 -124.487 389.274 -131.195C387.695 -135.826 385.957 -140.404 384.218 -144.981C379.819 -156.316 374.991 -167.862 369.47 -179.35C360.918 -197.113 351.59 -211.402 341.191 -226.216C336.828 -232.216 332.52 -238.055 328.106 -243.68C310.506 -266.021 291.915 -284.993 271.444 -297.975C264.05 -302.405 256.555 -306.086 248.959 -309.02C236.44 -313.84 223.777 -316.471 211.233 -317.182C205.041 -317.564 198.639 -317.518 192.505 -317.207C166.281 -320.915 141.161 -319.294 118.804 -311.662C76.8033 -297.325 44.0189 -261.708 27.9057 -199.153C25.0205 -191.928 22.7268 -184.013 21.2898 -175.677C17.4904 -153.876 19.3713 -128.487 29.6619 -98.3019C31.1864 -93.83 32.9796 -89.0932 34.9324 -84.411C36.6966 -76.0984 38.8347 -67.7351 41.1869 -59.2667C43.5391 -50.7982 46.1054 -42.2245 48.8314 -33.7054C51.5575 -25.1863 54.338 -16.5074 57.3326 -7.72338L57.8117 -7.88692L57.3326 -7.72338C70.342 29.9137 85.7939 65.8255 105.057 97.2271ZM49.7896 -34.0325C47.0636 -42.5516 44.4972 -51.1253 42.1451 -59.5937C39.7929 -68.0622 37.6548 -76.4255 35.8361 -84.8977C33.8289 -89.7397 32.0902 -94.3168 30.5657 -98.7887C20.3295 -128.814 18.503 -154.044 22.1972 -175.63C23.6343 -183.966 25.8226 -191.666 28.7079 -198.892C44.6614 -261.392 77.395 -296.636 119.076 -310.864C141.274 -318.441 166.234 -320.008 192.458 -316.3C198.751 -316.665 204.994 -316.657 211.186 -316.274C223.57 -315.509 236.233 -312.878 248.538 -308.164C256.08 -305.389 263.415 -301.653 270.968 -297.278C291.225 -284.401 309.762 -265.589 327.362 -243.248C331.776 -237.623 336.084 -231.783 340.393 -225.944C350.792 -211.129 359.96 -196.786 368.617 -179.237C374.138 -167.749 379.071 -156.418 383.365 -144.868C385.104 -140.291 386.683 -135.659 388.262 -131.027C390.549 -124.32 392.676 -117.557 394.643 -110.74C397.816 -99.3427 400.56 -88.1554 402.825 -76.8045C402.988 -76.3254 403.206 -75.6865 403.37 -75.2074C409.032 -58.5975 413.686 -41.2867 417.004 -24.2331C418.771 -15.3868 420.165 -6.59132 421.131 1.99382C426.932 38.8821 422.781 71.6792 412.18 97.5848C409.567 105.609 406.471 113.262 403.107 120.651C399.688 127.88 396.001 134.844 391.99 141.384C384.822 154.35 375.023 164.827 365.67 178.182C361.014 183.873 356.357 189.563 351.646 195.094C346.935 200.624 342.224 206.155 337.513 211.685C332.316 216.312 326.741 220.355 321.054 223.544C317.334 225.706 313.61 227.333 309.777 228.642C298.758 232.403 287.129 232.807 274.883 228.785C269.268 226.958 263.54 224.277 257.591 220.424C222.221 182.04 187.181 176.528 148.881 154.656C136.809 144.869 127.536 130.74 117.666 115.388C113.463 109.334 109.579 103.172 105.641 96.8493C86.3783 65.4477 71.1405 29.6411 58.1311 -7.99594C55.3506 -16.6748 52.5701 -25.3536 49.7896 -34.0325Z" fill="white"/>
<path d="M93.2518 17.0988L93.4115 17.0443L93.2518 17.0988C96.2863 23.9079 99.426 30.5029 102.617 36.7239C105.807 42.9449 109.048 48.792 112.235 54.4794C116.446 61.6003 120.707 68.3473 125.019 74.7204C129.331 81.0935 133.854 87.0381 138.213 92.5036C160.807 119.559 187.449 145.41 216.09 151.502C223.795 154.756 231.657 157.421 239.46 159.393C266.558 166.189 294.03 165.192 318.623 156.797C343.855 148.184 366.1 131.854 382.425 108.095C386.167 101.291 389.212 94.0112 391.451 85.9368C393.483 78.8244 395.033 71.3419 396.1 63.4893C397.167 55.6368 397.696 47.2544 397.798 38.6616C394.302 18.9944 398.04 3.81137 392.99 -16.752C391.27 -26.5057 389.335 -36.3647 386.812 -46.3795C383.244 -61.0298 378.928 -75.7814 373.864 -90.6344C368.474 -106.446 362.176 -122.304 355.399 -137.998C351.755 -148.165 347.635 -157.635 342.88 -166.353C337.53 -176.294 331.654 -185.164 325.04 -192.535C294.098 -223.159 264.047 -279.405 232.834 -279.448C227.498 -279.41 222.217 -279.212 216.777 -278.959C211.336 -278.707 205.95 -278.294 200.404 -277.828C177.121 -280.756 154.186 -279.524 133.904 -272.601C93.6607 -258.864 63.4388 -223.051 59.5283 -155.034C58.2473 -147.287 57.3947 -139.329 57.0247 -131.001C56.6547 -122.673 56.5533 -114.08 57.0944 -105.172C57.7371 -97.0114 58.9678 -88.695 60.6776 -80.5421C62.9391 -69.7249 66.2132 -59.075 69.8612 -48.3745C76.0682 -30.1676 83.502 -12.0229 89.6546 6.02432C90.9069 9.69764 92.1592 13.3709 93.2518 17.0988ZM70.3403 -48.538C66.6923 -59.2386 63.4182 -69.8884 61.1566 -80.7057C59.4469 -88.8585 58.2162 -97.1749 57.5736 -105.335C57.0325 -114.244 57.1338 -122.837 57.5038 -131.164C57.8737 -139.492 58.7265 -147.45 60.0074 -155.197C63.9724 -223.055 93.9293 -258.599 134.013 -272.281C154.295 -279.205 177.015 -280.542 200.299 -277.613C205.845 -278.08 211.231 -278.492 216.671 -278.745C222.112 -278.997 227.393 -279.195 232.728 -279.234C263.354 -279.347 293.67 -223.369 324.667 -192.585C331.28 -185.215 337.156 -176.345 342.507 -166.404C347.102 -157.631 351.222 -148.161 355.026 -138.049C361.962 -122.409 368.1 -106.496 373.436 -90.8448C378.5 -75.9918 382.815 -61.2402 386.384 -46.5899C388.747 -36.5206 390.841 -26.7161 392.562 -16.9623C397.557 3.44129 393.979 18.5698 397.315 38.2915C397.213 46.8843 396.684 55.2667 395.617 63.1193C394.55 70.9718 393.001 78.4543 391.128 85.5121C388.889 93.5866 385.844 100.866 382.262 107.616C366.042 131.161 343.797 147.49 318.725 156.049C294.132 164.444 266.82 165.387 239.776 158.75C231.972 156.778 224.165 154.273 216.405 150.859C187.819 144.927 161.337 119.021 138.743 91.9661C134.329 86.3409 129.861 80.556 125.549 74.183C121.237 67.8099 116.976 61.0629 112.765 53.9419C109.419 48.3091 106.337 42.4075 103.146 36.1864C99.9559 29.9654 96.8706 23.5302 93.9414 16.5068C92.8488 12.779 91.5965 9.10565 90.3442 5.43233C83.9811 -12.1864 76.5473 -30.3311 70.3403 -48.538Z" fill="white"/>
<path d="M105.447 5.80396C110.848 15.3712 116.888 24.7204 123.088 34.0151C141.323 63.4494 163.05 88.4825 185.848 106.197C193.412 112.173 201.183 117.187 208.841 121.348C236.716 140.36 260.867 137.465 284.183 129.506C298.076 124.764 311.53 118.21 325.424 113.467C333.409 110.741 341.397 108.549 349.502 107.744C349.662 107.69 349.662 107.69 349.662 107.69L349.821 107.635C355.411 105.727 360.572 103.609 365.301 100.746C379.808 92.0503 389.309 77.0395 388.793 48.3319C387.497 22.5651 381.507 -2.84782 372.905 -28.0819C358.476 -70.4049 336.476 -111.926 315.663 -151.535C309.177 -163.763 302.114 -174.546 294.898 -184.207C275.454 -210.911 253.404 -228.524 231.035 -238.182C223.544 -241.331 216.111 -243.786 208.685 -245.173C189.012 -250.582 167.936 -250.698 149.251 -244.32C122.103 -235.053 99.9021 -212.319 93.2359 -172.78C91.6863 -165.298 90.3509 -157.71 89.3893 -150.072C88.268 -142.379 87.3065 -134.74 86.2396 -126.888C85.4596 -116.102 85.1079 -105.106 85.5039 -94.0087C85.7625 -63.9651 92.391 -30.9254 102.518 -1.21941C103.335 1.17623 104.097 3.41214 104.914 5.80778L105.393 5.64424L105.447 5.80396ZM86.0918 -93.8528C85.8556 -105.005 86.0476 -115.946 86.8276 -126.732C87.9489 -134.425 88.856 -142.223 90.0318 -149.756C91.153 -157.449 92.2743 -165.142 93.8783 -172.464C100.599 -211.844 122.8 -234.577 149.629 -243.736C168.154 -250.059 189.016 -250.049 208.848 -244.694C216.274 -243.307 223.707 -240.852 231.199 -237.703C253.568 -228.044 275.617 -210.432 295.007 -183.887C302.223 -174.226 309.126 -163.389 315.772 -151.216C336.531 -111.767 358.53 -70.2452 372.959 -27.9222C381.562 -2.68815 387.391 22.7793 388.848 48.4916C389.524 77.1447 379.913 91.8361 365.566 100.478C360.837 103.34 355.676 105.458 350.086 107.366C349.927 107.421 349.927 107.421 349.767 107.475C341.503 108.335 333.514 110.527 325.529 113.253C311.636 117.995 297.967 124.444 284.233 129.132C260.918 137.091 236.927 139.932 209.106 121.079C201.448 116.918 193.677 111.904 186.113 105.928C163.315 88.2138 141.534 63.0209 123.353 33.7463C116.993 24.5062 111.059 14.9428 105.553 5.58972C104.79 3.3538 103.814 1.01267 103.052 -1.22326C92.9789 -30.7695 86.3504 -63.8092 86.0918 -93.8528Z" fill="white"/>
<path d="M140.347 -16.806L139.922 -16.4827C164.452 20.4313 186.416 72.3065 220.015 85.6206C225.579 87.822 230.867 88.6913 235.829 88.6024C240.79 88.5134 245.639 87.5714 250.38 86.3099C254.205 83.9343 258.034 82.0924 262.027 80.7295C285.342 72.7707 311.276 80.8564 338.773 83.5943C341.924 83.9453 344.856 83.6574 347.411 82.7852C349.647 82.022 351.72 80.7797 353.683 79.2179C365.352 68.9945 367.953 43.6799 359.895 20.0428C356.519 10.1408 353.089 0.0790377 349.499 -9.92819C346.069 -19.9899 342.319 -29.9427 338.57 -39.8954C337.314 -44.1024 336.003 -48.469 334.588 -52.6215C308.344 -129.602 253.706 -199.921 203.383 -208.952C195.742 -210.445 188.273 -210.392 180.919 -208.951C178.575 -208.508 176.444 -207.959 174.208 -207.195C147.699 -198.146 131.41 -169.051 123.227 -132.916C121.1 -123.989 119.725 -114.426 118.937 -104.708C117.631 -85.006 119.374 -64.2054 126.126 -44.4014C129.393 -34.8188 133.832 -25.458 139.603 -16.3737L140.347 -16.806ZM120.164 -104.77C120.792 -114.434 122.381 -123.891 124.348 -132.764C132.426 -168.685 148.61 -197.566 174.695 -206.292C176.771 -207 178.901 -207.549 181.246 -207.993C188.44 -209.379 195.909 -209.432 203.335 -208.045C253.071 -199.169 307.6 -129.169 333.789 -52.3489C335.205 -48.1965 336.675 -43.8843 337.931 -39.6773C341.68 -29.7246 345.27 -19.7174 348.86 -9.71014C352.291 0.351602 355.721 10.4133 359.097 20.3154C367.046 43.633 364.39 68.7879 353.091 78.5284C351.288 80.0357 349.375 81.2235 347.299 81.9321C344.903 82.7498 342.13 82.9832 339.194 82.7374C311.911 80.1047 285.763 71.9138 262.128 79.9817C258.136 81.3445 254.307 83.1864 250.321 85.6166C245.795 86.9832 241.106 87.8707 236.09 87.8C231.129 87.889 226 86.9651 220.49 84.9234C187.534 71.9249 165.41 20.1042 140.881 -16.8098C135.164 -25.7344 130.725 -35.0952 127.512 -44.518C120.547 -64.4273 118.644 -85.1734 120.164 -104.77Z" fill="white"/>
<path d="M152.762 -42.6158C153.528 -39.8462 154.454 -37.1311 155.38 -34.416C184.836 51.9871 272.359 78.0959 320.588 61.633C326.845 55.9312 331.175 49.2826 334.165 41.8431C337.156 34.4037 338.752 26.0136 338.959 17.2066C339.325 8.34507 338.302 -0.933441 336.421 -10.6327C334.116 -20.0088 331.223 -29.5407 327.956 -39.1233C307.756 -98.3757 271.23 -157.404 229.396 -173.434C215.005 -179.041 200.643 -180.379 187.856 -177.619C185.725 -177.07 183.595 -176.521 181.519 -175.812C171.138 -172.269 162.112 -165.8 154.759 -156.515C145.925 -145.298 139.893 -130.045 137.625 -110.55C135.325 -95.8576 139.005 -80.3542 144.124 -65.3415C146.951 -57.5702 149.938 -49.8534 152.762 -42.6158ZM138.159 -110.554C140.321 -129.835 146.513 -145.142 155.187 -156.305C162.381 -165.535 171.461 -171.845 181.682 -175.333C183.758 -176.042 185.729 -176.536 187.859 -177.085C200.646 -179.846 214.794 -178.613 229.185 -173.006C270.592 -157.186 307.331 -98.0525 327.477 -38.9598C330.744 -29.3771 333.637 -19.8452 335.888 -10.6289C337.768 -0.929617 338.792 8.34889 338.426 17.2104C338.219 26.0175 336.568 34.2478 333.577 41.6873C330.587 49.1267 326.257 55.7753 320.105 61.2629C296.31 69.3853 262.519 67.0128 230.935 51.763C199.51 36.4587 170.345 8.43694 155.699 -34.5251C154.773 -37.2401 153.848 -39.9552 153.082 -42.7248L152.922 -42.6703L153.082 -42.7248C150.418 -50.0169 147.271 -57.6792 144.603 -65.505C139.644 -80.5723 135.804 -96.0211 138.159 -110.554Z" fill="white"/>
<path d="M295.547 35.7691C297.782 35.0059 299.804 34.1376 301.771 33.1095C320.75 22.8869 318.328 -3.56583 308.633 -32.528C299.866 -58.2414 285.057 -85.9927 273.663 -105.817C252.788 -146.653 218.281 -175.704 190.12 -166.269C186.128 -164.907 182.248 -162.691 178.586 -159.836C157.843 -142.236 149.754 -107.916 160.528 -69.5159C161.736 -64.4014 163.265 -59.3958 164.898 -54.6045C188.696 15.7227 255.462 49.4519 295.547 35.7691ZM165.272 -54.5538C163.638 -59.3451 162.11 -64.3507 160.902 -69.4653C150.023 -107.651 158.326 -141.866 178.803 -159.197C182.411 -162.212 186.186 -164.213 190.178 -165.576C217.966 -175.061 252.418 -146.17 273.079 -105.439L273.239 -105.494L273.079 -105.439C284.473 -85.615 299.228 -58.0233 307.994 -32.3099C317.794 -3.562 319.948 22.6258 301.448 32.6848C299.481 33.7129 297.3 34.6358 295.223 35.3445C275.261 42.1586 248.762 37.1188 224.273 21.7647C199.729 6.25089 177.196 -19.5772 165.272 -54.5538Z" fill="white"/>
<path d="M281.126 10.7362C284.32 9.64596 287.297 7.91687 290.215 5.49441C303.477 -5.80786 300.358 -32.7359 291.211 -59.5673C285.929 -75.0592 278.728 -90.4306 271.225 -103.025C250.968 -139.436 221.488 -158.97 196.575 -150.466C192.902 -149.212 189.287 -147.265 185.835 -144.839C175.179 -134.783 163.017 -118.685 169.278 -100.319C169.932 -98.4021 170.799 -96.3804 171.986 -94.4677C195.943 -47.7299 244.98 22.8965 281.126 10.7362ZM169.812 -100.322C163.659 -118.37 175.662 -134.413 186.158 -144.414C189.555 -147 193.065 -148.733 196.738 -149.987C221.332 -158.382 250.543 -139.113 270.801 -102.702L270.96 -102.756L270.801 -102.702C278.249 -90.2671 285.505 -74.736 290.732 -59.4037C299.879 -32.5724 302.784 -5.74952 289.892 5.06978C286.974 7.49224 283.943 9.06164 280.909 10.0974C245.35 22.4135 196.208 -47.9987 172.306 -94.5767C171.333 -96.3842 170.465 -98.406 169.812 -100.322Z" fill="white"/>
</g>
<defs>
<clipPath id="clip0_75_5239">
<rect width="276" height="330" fill="white"/>
</clipPath>
</defs>
</svg>
