<svg width="231" height="340" viewBox="0 0 231 340" fill="none" xmlns="http://www.w3.org/2000/svg">
<g clip-path="url(#clip0_114_5300)">
<path d="M92.8998 -265.712C89.2125 -258.748 85.634 -251.465 82.6979 -243.865C68.5367 -208.008 64.6616 -166.034 81.486 -116.684C82.4116 -113.968 83.2827 -111.413 84.368 -108.753C88.8218 -97.2573 94.2919 -85.3957 100.992 -73.0627C103.217 -67.5818 105.337 -61.8868 107.243 -56.297C128.532 6.1496 127.735 69.1816 149.297 132.427C150.222 135.142 151.093 137.697 152.179 140.358C155.326 148.02 159.322 155.036 163.743 161.728C201.619 207.459 228.352 285.876 275.892 301.385C311.353 313.885 337.637 287.44 373.178 311.68C379.712 315.156 386.14 318.845 392.673 322.321C412.008 333.015 431.23 342.857 448.586 345.134C455.635 345.937 462.462 345.568 468.85 343.388C484.587 335.163 498.379 323.323 510.359 304.079C515.285 298.653 520.315 293.013 524.917 287.163C542.284 275.352 553.626 256.325 561.367 233.535C563.983 226.045 566.222 217.97 567.979 209.526C572.03 123.096 619.632 22.6915 589.791 -65.3631C588.593 -68.8767 587.236 -72.3359 585.824 -75.9547C582.027 -84.9998 577.377 -93.9321 571.555 -102.642C526.351 -158.887 512.477 -245.082 471.015 -308.131C453.393 -333.673 433.909 -358.403 410.523 -376.273C403.598 -382.467 396.571 -387.913 389.177 -392.343C358.536 -410.055 332.093 -383.555 299.731 -395.33C292.523 -396.079 285.318 -396.294 278.168 -396.35C273.74 -396.264 269.312 -396.179 264.779 -395.88L262.703 -395.171C263.077 -395.121 263.505 -394.91 264.039 -394.914C268.732 -395.268 273.319 -395.408 277.961 -395.388C284.897 -395.437 292.157 -395.062 299.31 -394.473C332.365 -382.756 358.703 -409.042 388.542 -391.591C395.776 -387.107 402.963 -381.715 409.674 -375.626C433.005 -357.916 452.489 -333.187 470.057 -307.803C511.25 -245.019 525.284 -158.879 570.597 -102.315C576.205 -93.7102 580.855 -84.7779 584.651 -75.7328C586.009 -72.2737 587.421 -68.6549 588.619 -65.1413C618.456 22.3797 571.014 122.73 566.803 209.214C565.261 217.764 563.181 225.784 560.564 233.274C552.983 256.009 541.587 274.876 524.111 286.369C519.455 292.059 514.638 297.804 509.554 303.284C497.573 322.528 484.046 334.099 468.469 342.27C462.241 344.396 455.573 344.71 448.739 344.012C431.596 341.84 412.429 332.158 393.199 321.249C386.826 317.72 380.238 314.085 373.864 310.555C337.681 285.999 311.237 312.498 276.364 300.154C229.467 284.961 202.628 206.758 164.698 160.867C160.331 154.335 156.549 147.424 153.402 139.762C152.476 137.047 151.445 134.546 150.52 131.831C129.067 68.9052 129.81 5.71353 108.466 -56.8927C106.56 -62.4826 104.441 -68.1776 102.161 -73.8182C95.4606 -86.1512 89.9905 -98.0127 85.5912 -109.348C84.5059 -112.009 83.5802 -114.724 82.7091 -117.279C65.9936 -166.31 69.7634 -208.07 83.9791 -243.768C86.9152 -251.367 90.334 -258.596 94.1811 -265.615C104.822 -301.34 120.254 -330.856 139.631 -352.982L137.874 -352.383C118.392 -330.042 103.439 -300.69 92.8998 -265.712Z" fill="white"/>
<path d="M95.8378 -234.089C82.1084 -197.487 79.7941 -153.55 97.6531 -101.165C98.0342 -100.047 98.4698 -98.7689 98.8509 -97.6509C103.04 -85.8868 108.245 -73.7565 114.521 -61.1001C128.028 -5.26832 137.681 48.6699 155.485 100.895C158.534 109.839 161.903 118.674 165.486 127.614L165.645 127.559L165.486 127.614C170.807 133.286 176.128 138.958 181.558 144.95C218.428 184.07 232.303 270.265 280.409 274.883C317.525 279.686 352.15 271.433 390.182 300.885C396.828 305.214 403.314 309.597 410.01 313.551C416.602 317.72 423.298 321.674 429.991 325.095C435.824 327.562 441.327 328.536 446.393 328.233C449.38 328.105 452.364 327.443 455.079 326.516C456.995 325.862 459.017 324.994 460.824 324.02C497.772 296.431 512.703 240.342 531.458 189.722C534.71 181.48 537.908 173.079 541.428 165.102C573.257 106.81 576.158 15.9581 547.682 -67.5705C544.524 -76.8337 541.047 -85.9879 537.09 -94.9786C533.391 -105.305 529.373 -115.523 525.141 -125.846C520.926 -141.345 516.175 -157.375 510.73 -173.346C487.862 -240.424 454.058 -307.157 407.076 -342.47C399.617 -348.66 392.056 -354.103 384.238 -358.209C368.547 -366.582 351.978 -370.732 334.702 -369.114C327.167 -370.821 319.686 -372.368 312.264 -373.222C306.656 -373.983 300.997 -374.369 295.448 -374.436C289.844 -374.663 284.403 -374.41 278.962 -374.158C248.95 -377.998 218.864 -376.822 192.195 -367.718C150.833 -353.599 117.66 -320.167 105.343 -256.411C101.819 -248.968 98.6142 -241.634 95.8378 -234.089ZM191.93 -367.449C218.44 -376.498 248.525 -377.675 278.538 -373.834C283.924 -374.246 289.579 -374.394 295.023 -374.113C300.573 -374.046 306.126 -373.445 311.679 -372.845C319.156 -371.831 326.742 -370.498 334.117 -368.736C351.394 -370.355 367.908 -366.364 383.599 -357.991C391.472 -353.725 398.978 -348.442 406.437 -342.251C453.364 -307.099 487.168 -240.366 510.037 -173.287C515.481 -157.316 520.233 -141.287 524.447 -125.787C528.999 -115.574 533.072 -105.196 536.716 -95.0293C540.673 -86.0386 544.15 -76.8844 547.308 -67.6212C575.784 15.9074 572.829 106.599 541.105 164.677C537.639 172.814 534.387 181.055 531.244 189.617C512.488 240.237 497.558 296.326 460.715 323.701C458.908 324.674 456.886 325.543 454.97 326.197C452.255 327.124 449.431 327.731 446.284 327.914C441.163 328.057 435.875 327.188 430.042 324.721C423.295 321.141 416.653 317.346 410.061 313.177C403.47 309.009 396.824 304.68 390.233 300.512C351.987 270.954 317.256 279.422 280.3 274.563C232.568 269.996 218.533 183.856 181.663 144.735C176.393 138.689 170.912 133.072 165.75 127.345C162.222 118.565 158.799 109.57 155.75 100.627C137.946 48.4012 128.453 -5.59159 114.786 -61.3689C108.51 -74.0252 103.305 -86.1555 99.1159 -97.9196C98.7348 -99.0376 98.2992 -100.315 97.918 -101.433C80.059 -153.818 82.4278 -197.596 96.1572 -234.198C98.9336 -241.743 102.138 -249.077 105.288 -256.571C117.714 -320.007 150.727 -353.385 191.93 -367.449Z" fill="white"/>
<path d="M99.3215 -122.418C104.821 -106.287 112.995 -89.1083 124.592 -70.78C127.1 -62.8997 129.768 -55.0738 132.276 -47.1935C133.093 -44.7979 133.855 -42.562 134.672 -40.1663C145.126 -9.50199 152.854 20.4881 155.908 53.5003L156.067 53.4458L155.908 53.5003C155.908 53.5003 155.908 53.5003 155.962 53.66C163.149 74.7417 172.783 94.6319 184.009 113.443C187.733 119.66 191.617 125.823 195.82 131.877C240.085 222.496 309.327 282.838 376.339 274.405C382.582 274.414 388.552 273.624 394.305 272.195C396.969 271.642 399.684 270.715 402.239 269.843C411.023 266.845 419.476 262.355 427.497 257.121C433.87 252.806 440.08 248.011 446.232 242.524C450.203 237.959 454.387 233.5 458.626 229.2C480.613 206.361 506.789 187.442 524.188 156.898C527.614 150.736 530.717 144.149 533.388 136.819C547.186 78.977 549.685 15.1856 535.349 -52.4875C533.418 -61.8128 531.113 -71.1888 528.434 -80.6155C526.3 -88.4452 523.846 -96.1658 521.233 -103.832C520.688 -105.429 520.144 -107.026 519.599 -108.623C517.189 -117.785 514.459 -126.838 511.679 -135.517C491.047 -195.513 457.886 -254.085 418.529 -297.884C412.562 -304.405 406.225 -310.444 399.891 -315.948C380.839 -332.089 360.067 -342.293 338.083 -342.455C330.388 -344.108 322.538 -345.172 314.745 -345.543C309.461 -345.879 304.285 -345.895 299.218 -345.592C294.097 -345.448 288.87 -345.091 283.698 -344.573C252.771 -349.528 222.417 -348.616 195.588 -339.458C154.865 -325.557 122.008 -292.768 106.192 -233.524C102.451 -226.719 99.2967 -219.759 96.7345 -212.109C88.3692 -186.967 87.5063 -157.075 99.3215 -122.418ZM106.831 -233.742C122.647 -292.986 155.399 -325.561 195.962 -339.407C222.791 -348.566 252.985 -349.423 283.912 -344.468C289.084 -344.985 294.311 -345.343 299.592 -345.541C304.713 -345.685 309.889 -345.668 315.119 -345.492C322.912 -345.121 330.603 -344.002 338.457 -342.404C360.441 -342.242 380.999 -332.143 400.051 -316.003C406.33 -310.658 412.667 -304.62 418.635 -298.098C457.936 -254.459 491.098 -195.887 511.73 -135.891C514.51 -127.212 517.08 -118.104 519.704 -108.837C520.249 -107.24 520.793 -105.643 521.338 -104.046C524.006 -96.2203 526.46 -88.4997 528.54 -80.8298C531.164 -71.5628 533.469 -62.1867 535.4 -52.8614C549.735 14.8117 547.237 78.6031 533.439 136.445C530.768 143.776 527.665 150.362 524.239 156.524C506.999 187.013 480.824 205.933 458.837 228.771C454.438 233.126 450.253 237.585 446.442 242.095C440.236 247.423 434.081 252.377 427.653 256.533C419.526 261.981 411.179 266.257 402.395 269.255C399.84 270.127 397.071 270.894 394.461 271.607C388.709 273.036 382.684 273.666 376.495 273.817C309.643 282.195 240.615 221.959 196.245 131.553C192.201 125.445 188.158 119.337 184.379 112.96C173.047 94.3631 163.574 74.4185 156.387 53.3368C153.333 20.3246 145.605 -9.66554 135.151 -40.3298C134.334 -42.7255 133.572 -44.9614 132.755 -47.3571C130.087 -55.1829 127.579 -63.0632 125.071 -70.9435C113.634 -89.3264 105.3 -106.451 99.8551 -122.422C88.0399 -157.079 88.9572 -186.811 97.5874 -212.222C99.9355 -219.977 103.089 -226.937 106.831 -233.742Z" fill="white"/>
<path d="M210.059 107.227C213.997 113.549 217.881 119.712 222.084 125.766C231.899 140.958 241.281 155.407 253.568 165.298C292.081 187.276 327.121 192.788 362.223 230.907C368.172 234.76 374.059 237.386 379.729 239.373C392.349 243.446 404.137 242.987 415.156 239.226C418.989 237.918 422.873 236.235 426.433 234.129C432.494 230.99 437.855 226.842 443.372 222.106C448.083 216.576 452.794 211.045 457.505 205.514C462.216 199.984 467.032 194.239 471.688 188.549C481.041 175.193 490.735 164.931 498.009 151.75C502.019 145.211 505.706 138.246 509.125 131.017C512.544 123.788 515.64 116.135 518.198 107.951C528.745 81.8857 533.001 48.8744 527.146 11.8265C526.18 3.24132 524.786 -5.5542 523.018 -14.4004C519.646 -31.6137 515.047 -48.7649 509.33 -65.5344C509.166 -66.0136 509.003 -66.4927 508.84 -66.9718C506.574 -78.3227 503.83 -89.5101 500.658 -100.908C498.69 -107.725 496.563 -114.487 494.276 -121.195C492.697 -125.826 490.959 -130.404 489.22 -134.981C484.821 -146.316 479.993 -157.862 474.472 -169.35C465.92 -187.113 456.592 -201.402 446.193 -216.216C441.83 -222.216 437.522 -228.055 433.108 -233.68C415.508 -256.021 396.917 -274.993 376.446 -287.975C369.052 -292.405 361.557 -296.086 353.961 -299.02C341.442 -303.84 328.779 -306.471 316.235 -307.182C310.043 -307.564 303.641 -307.518 297.507 -307.207C271.283 -310.915 246.163 -309.294 223.806 -301.662C181.805 -287.325 149.021 -251.708 132.908 -189.153C130.022 -181.928 127.729 -174.013 126.292 -165.677C122.492 -143.876 124.373 -118.487 134.664 -88.3019C136.188 -83.83 137.982 -79.0932 139.934 -74.411C141.699 -66.0984 143.837 -57.7351 146.189 -49.2667C148.541 -40.7982 151.107 -32.2245 153.833 -23.7054C156.559 -15.1863 159.34 -6.50744 162.335 2.27662L162.814 2.11308L162.335 2.27662C175.344 39.9137 190.796 75.8255 210.059 107.227ZM154.792 -24.0325C152.066 -32.5516 149.499 -41.1253 147.147 -49.5937C144.795 -58.0622 142.657 -66.4255 140.838 -74.8977C138.831 -79.7397 137.092 -84.3168 135.568 -88.7887C125.331 -118.814 123.505 -144.044 127.199 -165.63C128.636 -173.966 130.825 -181.666 133.71 -188.892C149.663 -251.392 182.397 -286.636 224.078 -300.864C246.276 -308.441 271.236 -310.008 297.46 -306.3C303.753 -306.665 309.996 -306.657 316.188 -306.274C328.572 -305.509 341.235 -302.878 353.54 -298.164C361.082 -295.389 368.417 -291.653 375.97 -287.278C396.227 -274.401 414.764 -255.589 432.364 -233.248C436.778 -227.623 441.086 -221.783 445.395 -215.944C455.794 -201.129 464.962 -186.786 473.619 -169.237C479.14 -157.749 484.073 -146.418 488.367 -134.868C490.106 -130.291 491.685 -125.659 493.264 -121.027C495.551 -114.32 497.678 -107.557 499.645 -100.74C502.818 -89.3427 505.562 -78.1554 507.827 -66.8045C507.99 -66.3254 508.208 -65.6865 508.372 -65.2074C514.034 -48.5975 518.688 -31.2867 522.006 -14.2331C523.773 -5.38684 525.167 3.40868 526.133 11.9938C531.934 48.8821 527.783 81.6792 517.182 107.585C514.569 115.609 511.473 123.262 508.109 130.651C504.69 137.88 501.003 144.844 496.992 151.384C489.824 164.35 480.025 174.827 470.672 188.182C466.016 193.873 461.359 199.563 456.648 205.094C451.937 210.624 447.226 216.155 442.515 221.685C437.318 226.312 431.743 230.355 426.056 233.544C422.336 235.706 418.612 237.333 414.779 238.642C403.76 242.403 392.131 242.807 379.885 238.785C374.27 236.958 368.542 234.277 362.593 230.424C327.223 192.04 292.183 186.528 253.883 164.656C241.811 154.869 232.537 140.74 222.668 125.388C218.465 119.334 214.581 113.172 210.643 106.849C191.38 75.4477 176.142 39.6411 163.133 2.00406C160.353 -6.6748 157.572 -15.3536 154.792 -24.0325Z" fill="white"/>
<path d="M198.254 27.0988L198.413 27.0443L198.254 27.0988C201.288 33.9079 204.428 40.5029 207.618 46.7239C210.809 52.9449 214.05 58.792 217.237 64.4794C221.448 71.6003 225.709 78.3473 230.021 84.7204C234.333 91.0935 238.856 97.0381 243.215 102.504C265.809 129.559 292.451 155.41 321.091 161.502C328.797 164.756 336.659 167.421 344.462 169.393C371.56 176.189 399.032 175.192 423.625 166.797C448.857 158.184 471.102 141.854 487.427 118.095C491.169 111.291 494.214 104.011 496.453 95.9368C498.485 88.8244 500.035 81.3419 501.102 73.4893C502.168 65.6368 502.698 57.2544 502.799 48.6616C499.304 28.9944 503.042 13.8114 497.992 -6.75196C496.272 -16.5057 494.337 -26.3647 491.814 -36.3795C488.246 -51.0298 483.93 -65.7814 478.866 -80.6344C473.476 -96.4457 467.178 -112.304 460.401 -127.998C456.757 -138.165 452.637 -147.635 447.882 -156.353C442.532 -166.294 436.656 -175.164 430.042 -182.535C399.1 -213.159 369.049 -269.405 337.836 -269.448C332.5 -269.41 327.219 -269.212 321.779 -268.959C316.338 -268.707 310.952 -268.294 305.406 -267.828C282.123 -270.756 259.188 -269.524 238.906 -262.601C198.663 -248.864 168.441 -213.051 164.53 -145.034C163.249 -137.287 162.397 -129.329 162.027 -121.001C161.657 -112.673 161.555 -104.08 162.096 -95.1719C162.739 -87.0114 163.97 -78.695 165.68 -70.5421C167.941 -59.7249 171.215 -49.075 174.863 -38.3745C181.07 -20.1676 188.504 -2.02286 194.657 16.0243C195.909 19.6976 197.161 23.3709 198.254 27.0988ZM175.342 -38.538C171.694 -49.2386 168.42 -59.8884 166.159 -70.7057C164.449 -78.8585 163.218 -87.1749 162.576 -95.3354C162.034 -104.244 162.136 -112.837 162.506 -121.164C162.876 -129.492 163.728 -137.45 165.009 -145.197C168.974 -213.055 198.931 -248.599 239.015 -262.281C259.297 -269.205 282.017 -270.542 305.301 -267.613C310.847 -268.08 316.233 -268.492 321.673 -268.745C327.114 -268.997 332.395 -269.195 337.73 -269.234C368.356 -269.347 398.672 -213.369 429.669 -182.585C436.282 -175.215 442.158 -166.345 447.508 -156.404C452.104 -147.631 456.223 -138.161 460.028 -128.049C466.964 -112.409 473.102 -96.4963 478.438 -80.8448C483.501 -65.9918 487.817 -51.2402 491.386 -36.5899C493.749 -26.5206 495.843 -16.7161 497.564 -6.96233C502.559 13.4413 498.981 28.5698 502.317 48.2915C502.215 56.8843 501.686 65.2667 500.619 73.1193C499.552 80.9718 498.003 88.4543 496.13 95.5121C493.891 103.587 490.846 110.866 487.264 117.616C471.044 141.161 448.799 157.49 423.727 166.049C399.134 174.444 371.822 175.387 344.778 168.75C336.974 166.778 329.167 164.273 321.407 160.859C292.821 154.927 266.339 129.021 243.745 101.966C239.331 96.3409 234.863 90.556 230.551 84.183C226.239 77.8099 221.978 71.0629 217.767 63.9419C214.421 58.3091 211.339 52.4075 208.148 46.1864C204.958 39.9654 201.873 33.5302 198.943 26.5068C197.851 22.779 196.598 19.1056 195.346 15.4323C188.983 -2.18641 181.549 -20.3311 175.342 -38.538Z" fill="white"/>
<path d="M210.449 15.804C215.85 25.3712 221.89 34.7204 228.09 44.0151C246.325 73.4494 268.052 98.4825 290.85 116.197C298.414 122.173 306.185 127.187 313.843 131.348C341.718 150.36 365.869 147.465 389.184 139.506C403.078 134.764 416.532 128.21 430.426 123.467C438.411 120.741 446.399 118.549 454.504 117.744C454.664 117.69 454.664 117.69 454.664 117.69L454.823 117.635C460.413 115.727 465.574 113.609 470.303 110.746C484.81 102.05 494.311 87.0395 493.795 58.3319C492.499 32.5651 486.509 7.15218 477.906 -18.0819C463.478 -60.4049 441.478 -101.926 420.665 -141.535C414.179 -153.763 407.116 -164.546 399.9 -174.207C380.456 -200.911 358.406 -218.524 336.037 -228.182C328.546 -231.331 321.113 -233.786 313.687 -235.173C294.014 -240.582 272.938 -240.698 254.253 -234.32C227.105 -225.053 204.904 -202.319 198.238 -162.78C196.688 -155.298 195.353 -147.71 194.391 -140.072C193.27 -132.379 192.308 -124.74 191.242 -116.888C190.462 -106.102 190.11 -95.1061 190.506 -84.0087C190.764 -53.9651 197.393 -20.9254 207.52 8.78059C208.337 11.1762 209.099 13.4121 209.916 15.8078L210.395 15.6442L210.449 15.804ZM191.094 -83.8528C190.858 -95.0048 191.05 -105.946 191.83 -116.732C192.951 -124.425 193.858 -132.223 195.034 -139.756C196.155 -147.449 197.276 -155.142 198.88 -162.464C205.601 -201.844 227.802 -224.577 254.631 -233.736C273.156 -240.059 294.018 -240.049 313.85 -234.694C321.276 -233.307 328.709 -230.852 336.201 -227.703C358.569 -218.044 380.619 -200.432 400.009 -173.887C407.225 -164.226 414.128 -153.389 420.774 -141.216C441.533 -101.767 463.532 -60.2452 477.961 -17.9222C486.564 7.31185 492.393 32.7793 493.85 58.4916C494.526 87.1447 484.915 101.836 470.568 110.478C465.839 113.34 460.678 115.458 455.088 117.366C454.929 117.421 454.929 117.421 454.769 117.475C446.505 118.335 438.516 120.527 430.531 123.253C416.638 127.995 402.969 134.444 389.235 139.132C365.92 147.091 341.929 149.932 314.108 131.079C306.45 126.918 298.679 121.904 291.115 115.928C268.317 98.2138 246.536 73.0209 228.355 43.7463C221.995 34.5062 216.061 24.9428 210.555 15.5897C209.792 13.3538 208.816 11.0127 208.054 8.77674C197.981 -20.7695 191.352 -53.8092 191.094 -83.8528Z" fill="white"/>
<path d="M245.347 -6.80598L244.922 -6.48272C269.452 30.4313 291.416 82.3065 325.015 95.6206C330.579 97.822 335.867 98.6913 340.829 98.6024C345.79 98.5134 350.639 97.5714 355.38 96.3099C359.205 93.9343 363.034 92.0924 367.027 90.7295C390.342 82.7707 416.276 90.8564 443.773 93.5943C446.924 93.9453 449.856 93.6574 452.411 92.7852C454.647 92.022 456.72 90.7797 458.683 89.2179C470.352 78.9945 472.953 53.6799 464.895 30.0428C461.519 20.1408 458.089 10.079 454.499 0.0718128C451.069 -9.98992 447.319 -19.9427 443.57 -29.8954C442.314 -34.1024 441.003 -38.469 439.588 -42.6215C413.344 -119.602 358.706 -189.921 308.383 -198.952C300.742 -200.445 293.273 -200.392 285.919 -198.951C283.575 -198.508 281.444 -197.959 279.208 -197.195C252.699 -188.146 236.41 -159.051 228.227 -122.916C226.1 -113.989 224.725 -104.426 223.937 -94.7078C222.631 -75.006 224.374 -54.2054 231.126 -34.4014C234.393 -24.8188 238.832 -15.458 244.603 -6.37369L245.347 -6.80598ZM225.164 -94.77C225.792 -104.434 227.381 -113.891 229.348 -122.764C237.426 -158.685 253.61 -187.566 279.695 -196.292C281.771 -197 283.901 -197.549 286.246 -197.993C293.44 -199.379 300.909 -199.432 308.335 -198.045C358.071 -189.169 412.6 -119.169 438.789 -42.3489C440.205 -38.1965 441.675 -33.8843 442.931 -29.6773C446.68 -19.7246 450.27 -9.71736 453.86 0.289864C457.291 10.3516 460.721 20.4133 464.097 30.3154C472.046 53.633 469.39 78.7879 458.091 88.5284C456.288 90.0357 454.375 91.2235 452.299 91.9321C449.903 92.7498 447.13 92.9832 444.194 92.7374C416.911 90.1047 390.763 81.9138 367.128 89.9817C363.136 91.3445 359.307 93.1864 355.321 95.6166C350.795 96.9832 346.106 97.8707 341.09 97.8C336.129 97.889 331 96.9651 325.49 94.9234C292.534 81.9249 270.41 30.1042 245.881 -6.80979C240.164 -15.7344 235.725 -25.0952 232.512 -34.518C225.547 -54.4273 223.644 -75.1734 225.164 -94.77Z" fill="white"/>
<path d="M257.762 -32.6158C258.528 -29.8462 259.454 -27.1311 260.38 -24.416C289.836 61.9871 377.359 88.0959 425.588 71.633C431.845 65.9312 436.175 59.2826 439.165 51.8431C442.156 44.4037 443.752 36.0136 443.959 27.2066C444.325 18.3451 443.302 9.06656 441.421 -0.632728C439.116 -10.0088 436.223 -19.5407 432.956 -29.1233C412.756 -88.3757 376.23 -147.404 334.396 -163.434C320.005 -169.041 305.643 -170.379 292.856 -167.619C290.725 -167.07 288.595 -166.521 286.519 -165.812C276.138 -162.269 267.112 -155.8 259.759 -146.515C250.925 -135.298 244.893 -120.045 242.625 -100.55C240.325 -85.8576 244.005 -70.3542 249.124 -55.3415C251.951 -47.5702 254.938 -39.8534 257.762 -32.6158ZM243.159 -100.554C245.321 -119.835 251.513 -135.142 260.187 -146.305C267.381 -155.535 276.461 -161.845 286.682 -165.333C288.758 -166.042 290.729 -166.536 292.859 -167.085C305.646 -169.846 319.794 -168.613 334.185 -163.006C375.592 -147.186 412.331 -88.0525 432.477 -28.9598C435.744 -19.3771 438.637 -9.84523 440.888 -0.628903C442.768 9.07038 443.792 18.3489 443.426 27.2104C443.219 36.0175 441.568 44.2478 438.577 51.6873C435.587 59.1267 431.257 65.7753 425.105 71.2629C401.31 79.3853 367.519 77.0128 335.935 61.763C304.51 46.4587 275.345 18.4369 260.699 -24.5251C259.773 -27.2401 258.848 -29.9552 258.082 -32.7248L257.922 -32.6703L258.082 -32.7248C255.418 -40.0169 252.271 -47.6792 249.603 -55.505C244.644 -70.5723 240.804 -86.0211 243.159 -100.554Z" fill="white"/>
</g>
<defs>
<clipPath id="clip0_114_5300">
<rect width="702" height="755" fill="white" transform="translate(0 -415)"/>
</clipPath>
</defs>
</svg>
