<svg width="704" height="600" viewBox="0 0 704 600" fill="none" xmlns="http://www.w3.org/2000/svg">
<path d="M93.8998 181.288C90.2125 188.252 86.634 195.535 83.6979 203.135C69.5367 238.992 65.6616 280.966 82.486 330.316C83.4116 333.032 84.2827 335.587 85.368 338.248C89.8218 349.743 95.2919 361.604 101.992 373.937C104.217 379.418 106.337 385.113 108.243 390.703C129.532 453.15 128.735 516.182 150.297 579.427C151.222 582.142 152.093 584.697 153.179 587.358C156.326 595.02 160.322 602.036 164.743 608.728C202.619 654.459 229.352 732.876 276.892 748.385C312.353 760.885 338.637 734.44 374.178 758.68C380.712 762.156 387.14 765.845 393.673 769.321C413.008 780.015 432.23 789.857 449.586 792.134C456.635 792.937 463.462 792.568 469.85 790.388C485.587 782.163 499.379 770.323 511.359 751.079C516.285 745.653 521.315 740.014 525.917 734.164C543.284 722.352 554.626 703.325 562.367 680.535C564.983 673.045 567.222 664.971 568.979 656.526C573.03 570.096 620.632 469.692 590.791 381.637C589.593 378.123 588.236 374.664 586.824 371.045C583.027 362 578.377 353.068 572.555 344.358C527.351 288.113 513.477 201.918 472.015 138.869C454.393 113.327 434.909 88.5974 411.523 70.7272C404.598 64.533 397.571 59.0866 390.177 54.6568C359.536 36.9455 333.093 63.4451 300.731 51.6697C293.523 50.921 286.318 50.7058 279.168 50.6504C274.74 50.7356 270.312 50.8207 265.779 51.1201L263.703 51.8287C264.077 51.8794 264.505 52.0898 265.039 52.086C269.732 51.7321 274.319 51.5924 278.961 51.6125C285.897 51.5627 293.157 51.9375 300.31 52.5266C333.365 64.2436 359.703 37.9583 389.542 55.4086C396.776 59.8928 403.963 65.2847 410.674 71.3737C434.005 89.0842 453.489 113.813 471.057 139.197C512.25 201.981 526.284 288.121 571.597 344.685C577.205 353.29 581.855 362.222 585.651 371.267C587.009 374.726 588.421 378.345 589.619 381.859C619.456 469.38 572.014 569.73 567.803 656.214C566.261 664.764 564.181 672.784 561.564 680.274C553.983 703.009 542.587 721.876 525.111 733.369C520.455 739.059 515.638 744.804 510.554 750.284C498.573 769.528 485.046 781.099 469.469 789.27C463.241 791.396 456.573 791.71 449.739 791.012C432.596 788.84 413.429 779.158 394.199 768.25C387.826 764.72 381.238 761.085 374.864 757.555C338.681 732.999 312.237 759.498 277.364 747.154C230.467 731.961 203.628 653.758 165.698 607.867C161.331 601.335 157.549 594.424 154.402 586.762C153.476 584.047 152.445 581.546 151.52 578.831C130.067 515.905 130.81 452.714 109.466 390.107C107.56 384.517 105.441 378.822 103.161 373.182C96.4606 360.849 90.9905 348.987 86.5912 337.652C85.5059 334.991 84.5802 332.276 83.7091 329.721C66.9936 280.69 70.7634 238.93 84.9791 203.232C87.9152 195.633 91.334 188.404 95.1811 181.385C105.822 145.66 121.254 116.144 140.631 94.0178L138.874 94.6174C119.392 116.958 104.439 146.31 93.8998 181.288Z" fill="white"/>
<path d="M96.8378 212.911C83.1084 249.513 80.7941 293.45 98.6531 345.835C99.0342 346.953 99.4698 348.231 99.8509 349.349C104.04 361.113 109.245 373.244 115.521 385.9C129.028 441.732 138.681 495.67 156.485 547.895C159.534 556.839 162.903 565.674 166.486 574.614L166.645 574.559L166.486 574.614C171.807 580.286 177.128 585.958 182.558 591.95C219.428 631.07 233.303 717.265 281.409 721.883C318.525 726.686 353.15 718.433 391.182 747.885C397.828 752.214 404.314 756.597 411.01 760.551C417.602 764.72 424.298 768.674 430.991 772.095C436.824 774.562 442.327 775.536 447.393 775.233C450.38 775.105 453.364 774.443 456.079 773.516C457.995 772.862 460.017 771.994 461.824 771.02C498.772 743.431 513.703 687.342 532.458 636.722C535.71 628.48 538.908 620.078 542.428 612.102C574.257 553.81 577.158 462.958 548.682 379.429C545.524 370.166 542.047 361.012 538.09 352.021C534.391 341.695 530.373 331.477 526.141 321.154C521.926 305.655 517.175 289.625 511.73 273.654C488.862 206.576 455.058 139.843 408.076 104.53C400.617 98.3401 393.056 92.8975 385.238 88.7909C369.547 80.4181 352.978 76.2677 335.702 77.8859C328.167 76.1789 320.686 74.6316 313.264 73.7776C307.656 73.0173 301.997 72.631 296.448 72.5641C290.844 72.3374 285.403 72.5899 279.962 72.8424C249.95 69.0019 219.864 70.1784 193.195 79.2821C151.833 93.4009 118.66 126.833 106.343 190.589C102.819 198.032 99.6142 205.366 96.8378 212.911ZM192.93 79.5509C219.44 70.5017 249.525 69.3252 279.538 73.1657C284.924 72.7535 290.579 72.6061 296.023 72.8873C301.573 72.9542 307.126 73.5548 312.679 74.1553C320.156 75.169 327.742 76.5021 335.117 78.2636C352.394 76.6454 368.908 80.6362 384.599 89.0089C392.472 93.2752 399.978 98.5581 407.437 104.749C454.364 139.901 488.168 206.634 511.037 273.712C516.481 289.684 521.233 305.713 525.447 321.213C529.999 331.426 534.072 341.804 537.716 351.971C541.673 360.961 545.15 370.116 548.308 379.379C576.784 462.907 573.829 553.599 542.105 611.677C538.639 619.814 535.387 628.055 532.244 636.617C513.488 687.237 498.558 743.326 461.715 770.701C459.908 771.674 457.886 772.543 455.97 773.197C453.255 774.124 450.431 774.731 447.284 774.914C442.163 775.057 436.875 774.188 431.042 771.721C424.295 768.141 417.653 764.346 411.061 760.177C404.47 756.009 397.824 751.68 391.233 747.511C352.987 717.954 318.256 726.421 281.3 721.563C233.568 716.996 219.533 630.856 182.663 591.735C177.393 585.689 171.912 580.072 166.75 574.345C163.222 565.565 159.799 556.57 156.75 547.627C138.946 495.401 129.453 441.408 115.786 385.631C109.51 372.975 104.305 360.844 100.116 349.08C99.7348 347.962 99.2992 346.685 98.918 345.567C81.059 293.182 83.4278 249.404 97.1572 212.802C99.9336 205.257 103.138 197.923 106.288 190.429C118.714 126.993 151.727 93.6152 192.93 79.5509Z" fill="white"/>
<path d="M332.479 349.28C332.159 349.389 331.84 349.498 331.521 349.607C324.817 352.43 323.3 356.87 324.77 361.182C324.879 361.502 324.933 361.662 325.042 361.981C330.476 368.506 339.652 383.917 348.33 381.133C348.969 380.915 349.713 380.482 350.457 380.05C353.367 376.56 353.062 370.959 351.266 365.689C348.053 356.266 339.72 346.986 332.479 349.28ZM350.946 365.798C352.797 371.228 352.834 376.564 350.242 379.945C349.658 380.323 348.914 380.755 348.275 380.973C340.131 383.753 330.85 368.557 325.416 362.032C325.362 361.872 325.253 361.553 325.144 361.233C323.728 357.081 325.14 352.855 331.684 350.086L331.629 349.926L331.684 350.086C332.003 349.977 332.323 349.868 332.642 349.759C335.996 348.614 339.796 350.348 343.179 353.472C346.507 356.437 349.367 361.166 350.946 365.798Z" fill="white"/>
<path d="M100.321 324.582C105.821 340.713 113.995 357.892 125.592 376.22C128.1 384.1 130.768 391.926 133.276 399.806C134.093 402.202 134.855 404.438 135.672 406.834C146.126 437.498 153.854 467.488 156.908 500.5L157.067 500.446L156.908 500.5C156.908 500.5 156.908 500.5 156.962 500.66C164.149 521.742 173.783 541.632 185.009 560.443C188.733 566.66 192.617 572.823 196.82 578.877C241.085 669.496 310.327 729.838 377.339 721.405C383.582 721.414 389.552 720.624 395.305 719.195C397.969 718.642 400.684 717.715 403.239 716.843C412.023 713.845 420.476 709.355 428.497 704.121C434.87 699.806 441.08 695.011 447.232 689.524C451.203 684.959 455.387 680.5 459.626 676.2C481.613 653.361 507.789 634.442 525.188 603.898C528.614 597.736 531.717 591.149 534.388 583.819C548.186 525.977 550.685 462.186 536.349 394.513C534.418 385.187 532.113 375.811 529.434 366.384C527.3 358.555 524.846 350.834 522.233 343.168C521.688 341.571 521.144 339.974 520.599 338.377C518.189 329.215 515.459 320.162 512.679 311.483C492.047 251.487 458.886 192.915 419.529 149.116C413.562 142.595 407.225 136.556 400.891 131.052C381.839 114.911 361.067 104.707 339.083 104.545C331.388 102.892 323.538 101.828 315.745 101.457C310.461 101.121 305.285 101.105 300.218 101.408C295.097 101.552 289.87 101.909 284.698 102.427C253.771 97.4721 223.417 98.3838 196.588 107.542C155.865 121.443 123.008 154.232 107.192 213.476C103.451 220.281 100.297 227.241 97.7345 234.891C89.3692 260.033 88.5063 289.925 100.321 324.582ZM107.831 213.258C123.647 154.014 156.399 121.439 196.962 107.593C223.791 98.4344 253.985 97.5774 284.912 102.532C290.084 102.015 295.311 101.657 300.592 101.459C305.713 101.315 310.889 101.332 316.119 101.508C323.912 101.879 331.603 102.998 339.457 104.596C361.441 104.758 381.999 114.857 401.051 130.997C407.33 136.342 413.667 142.38 419.635 148.902C458.936 192.541 492.098 251.113 512.73 311.109C515.51 319.788 518.08 328.896 520.704 338.163C521.249 339.76 521.793 341.357 522.338 342.954C525.006 350.78 527.46 358.5 529.54 366.17C532.164 375.437 534.469 384.813 536.4 394.139C550.735 461.812 548.237 525.603 534.439 583.445C531.768 590.776 528.665 597.362 525.239 603.524C507.999 634.013 481.824 652.933 459.837 675.771C455.438 680.126 451.253 684.585 447.442 689.095C441.236 694.423 435.081 699.377 428.653 703.533C420.526 708.981 412.179 713.257 403.395 716.255C400.84 717.127 398.071 717.894 395.461 718.607C389.709 720.036 383.684 720.666 377.495 720.817C310.643 729.195 241.615 668.959 197.245 578.553C193.201 572.445 189.158 566.337 185.379 559.96C174.047 541.363 164.574 521.418 157.387 500.337C154.333 467.325 146.605 437.334 136.151 406.67C135.334 404.274 134.572 402.039 133.755 399.643C131.087 391.817 128.579 383.937 126.071 376.056C114.634 357.674 106.3 340.549 100.855 324.578C89.0399 289.921 89.9572 260.189 98.5874 234.778C100.936 227.023 104.089 220.063 107.831 213.258Z" fill="white"/>
<path d="M211.059 554.227C214.997 560.549 218.881 566.712 223.084 572.766C232.899 587.958 242.281 602.407 254.568 612.298C293.081 634.276 328.121 639.788 363.223 677.907C369.172 681.76 375.059 684.386 380.729 686.373C393.349 690.446 405.137 689.987 416.156 686.226C419.989 684.918 423.873 683.235 427.433 681.129C433.494 677.99 438.855 673.842 444.372 669.106C449.083 663.576 453.794 658.045 458.505 652.514C463.216 646.984 468.032 641.239 472.688 635.549C482.041 622.193 491.735 611.931 499.009 598.75C503.019 592.211 506.706 585.246 510.125 578.017C513.544 570.788 516.64 563.135 519.198 554.951C529.745 528.886 534.001 495.874 528.146 458.826C527.18 450.241 525.786 441.446 524.018 432.6C520.646 415.386 516.047 398.235 510.33 381.466C510.166 380.986 510.003 380.507 509.84 380.028C507.574 368.677 504.83 357.49 501.658 346.092C499.69 339.275 497.563 332.513 495.276 325.805C493.697 321.174 491.959 316.596 490.22 312.019C485.821 300.684 480.993 289.138 475.472 277.65C466.92 259.887 457.592 245.598 447.193 230.784C442.83 224.784 438.522 218.945 434.108 213.32C416.508 190.979 397.917 172.007 377.446 159.025C370.052 154.595 362.557 150.914 354.961 147.98C342.442 143.16 329.779 140.529 317.235 139.818C311.043 139.436 304.641 139.482 298.507 139.793C272.283 136.085 247.163 137.706 224.806 145.338C182.805 159.675 150.021 195.292 133.908 257.847C131.022 265.072 128.729 272.987 127.292 281.323C123.492 303.124 125.373 328.513 135.664 358.698C137.188 363.17 138.982 367.907 140.934 372.589C142.699 380.902 144.837 389.265 147.189 397.733C149.541 406.202 152.107 414.775 154.833 423.295C157.559 431.814 160.34 440.493 163.335 449.277L163.814 449.113L163.335 449.277C176.344 486.914 191.796 522.825 211.059 554.227ZM155.792 422.968C153.066 414.448 150.499 405.875 148.147 397.406C145.795 388.938 143.657 380.575 141.838 372.102C139.831 367.26 138.092 362.683 136.568 358.211C126.331 328.186 124.505 302.956 128.199 281.37C129.636 273.034 131.825 265.334 134.71 258.108C150.663 195.608 183.397 160.364 225.078 146.136C247.276 138.559 272.236 136.992 298.46 140.7C304.753 140.335 310.996 140.343 317.188 140.726C329.572 141.491 342.235 144.122 354.54 148.836C362.082 151.611 369.417 155.347 376.97 159.722C397.227 172.599 415.764 191.411 433.364 213.752C437.778 219.377 442.086 225.217 446.395 231.056C456.794 245.871 465.962 260.214 474.619 277.763C480.14 289.251 485.073 300.582 489.367 312.132C491.106 316.709 492.685 321.341 494.264 325.973C496.551 332.68 498.678 339.443 500.645 346.26C503.818 357.657 506.562 368.845 508.827 380.196C508.99 380.675 509.208 381.313 509.372 381.793C515.034 398.402 519.688 415.713 523.006 432.767C524.773 441.613 526.167 450.409 527.133 458.994C532.934 495.882 528.783 528.679 518.182 554.585C515.569 562.609 512.473 570.262 509.109 577.651C505.69 584.88 502.003 591.844 497.992 598.384C490.824 611.35 481.025 621.827 471.672 635.182C467.016 640.873 462.359 646.563 457.648 652.094C452.937 657.624 448.226 663.155 443.515 668.685C438.318 673.312 432.743 677.355 427.056 680.544C423.336 682.706 419.612 684.333 415.779 685.642C404.76 689.403 393.131 689.807 380.885 685.785C375.27 683.958 369.542 681.277 363.593 677.424C328.223 639.04 293.183 633.528 254.883 611.656C242.811 601.869 233.537 587.74 223.668 572.388C219.465 566.334 215.581 560.172 211.643 553.849C192.38 522.448 177.142 486.641 164.133 449.004C161.353 440.325 158.572 431.646 155.792 422.968Z" fill="white"/>
<path d="M199.254 474.099L199.413 474.044L199.254 474.099C202.288 480.908 205.428 487.503 208.618 493.724C211.809 499.945 215.05 505.792 218.237 511.479C222.448 518.6 226.709 525.347 231.021 531.72C235.333 538.093 239.856 544.038 244.215 549.504C266.809 576.559 293.451 602.41 322.091 608.502C329.797 611.756 337.659 614.421 345.462 616.393C372.56 623.189 400.032 622.192 424.625 613.797C449.857 605.184 472.102 588.854 488.427 565.095C492.169 558.291 495.214 551.011 497.453 542.937C499.485 535.824 501.035 528.342 502.102 520.489C503.168 512.637 503.698 504.254 503.799 495.662C500.304 475.994 504.042 460.811 498.992 440.248C497.272 430.494 495.337 420.635 492.814 410.62C489.246 395.97 484.93 381.219 479.866 366.366C474.476 350.554 468.178 334.696 461.401 319.002C457.757 308.835 453.637 299.365 448.882 290.647C443.532 280.706 437.656 271.836 431.042 264.465C400.1 233.841 370.049 177.595 338.836 177.552C333.5 177.59 328.219 177.788 322.779 178.041C317.338 178.293 311.952 178.706 306.406 179.172C283.123 176.244 260.188 177.476 239.906 184.399C199.663 198.136 169.441 233.949 165.53 301.966C164.249 309.713 163.397 317.671 163.027 325.999C162.657 334.327 162.555 342.92 163.096 351.828C163.739 359.989 164.97 368.305 166.68 376.458C168.941 387.275 172.215 397.925 175.863 408.625C182.07 426.832 189.504 444.977 195.657 463.024C196.909 466.698 198.161 470.371 199.254 474.099ZM176.342 408.462C172.694 397.761 169.42 387.112 167.159 376.294C165.449 368.141 164.218 359.825 163.576 351.665C163.034 342.756 163.136 334.163 163.506 325.836C163.876 317.508 164.728 309.55 166.009 301.803C169.974 233.945 199.931 198.401 240.015 184.719C260.297 177.795 283.017 176.458 306.301 179.387C311.847 178.92 317.233 178.508 322.673 178.255C328.114 178.003 333.395 177.805 338.73 177.766C369.356 177.653 399.672 233.631 430.669 264.415C437.282 271.785 443.158 280.655 448.508 290.596C453.104 299.369 457.223 308.839 461.028 318.951C467.964 334.591 474.102 350.504 479.438 366.155C484.501 381.008 488.817 395.76 492.386 410.41C494.749 420.479 496.843 430.284 498.564 440.038C503.559 460.441 499.981 475.57 503.317 495.292C503.215 503.884 502.686 512.267 501.619 520.119C500.552 527.972 499.003 535.454 497.13 542.512C494.891 550.587 491.846 557.866 488.264 564.616C472.044 588.161 449.799 604.49 424.727 613.049C400.134 621.444 372.822 622.387 345.778 615.75C337.974 613.778 330.167 611.273 322.407 607.859C293.821 601.927 267.339 576.021 244.745 548.966C240.331 543.341 235.863 537.556 231.551 531.183C227.239 524.81 222.978 518.063 218.767 510.942C215.421 505.309 212.339 499.407 209.148 493.186C205.958 486.965 202.873 480.53 199.943 473.507C198.851 469.779 197.598 466.106 196.346 462.432C189.983 444.814 182.549 426.669 176.342 408.462Z" fill="white"/>
<path d="M211.449 462.804C216.85 472.371 222.89 481.72 229.09 491.015C247.325 520.449 269.052 545.483 291.85 563.197C299.414 569.173 307.185 574.187 314.843 578.348C342.718 597.36 366.869 594.465 390.184 586.506C404.078 581.764 417.532 575.21 431.426 570.467C439.411 567.741 447.399 565.549 455.504 564.744C455.664 564.69 455.664 564.69 455.664 564.69L455.823 564.635C461.413 562.727 466.574 560.609 471.303 557.747C485.81 549.05 495.311 534.04 494.795 505.332C493.499 479.565 487.509 454.152 478.906 428.918C464.478 386.595 442.478 345.074 421.665 305.465C415.179 293.237 408.116 282.454 400.9 272.793C381.456 246.089 359.406 228.477 337.037 218.818C329.546 215.669 322.113 213.214 314.687 211.827C295.014 206.418 273.938 206.302 255.253 212.68C228.105 221.947 205.904 244.681 199.238 284.22C197.688 291.702 196.353 299.29 195.391 306.928C194.27 314.621 193.308 322.26 192.242 330.112C191.462 340.898 191.11 351.894 191.506 362.991C191.764 393.035 198.393 426.075 208.52 455.781C209.337 458.176 210.099 460.412 210.916 462.808L211.395 462.644L211.449 462.804ZM192.094 363.147C191.858 351.995 192.05 341.054 192.83 330.268C193.951 322.575 194.858 314.777 196.034 307.244C197.155 299.551 198.276 291.858 199.88 284.536C206.601 245.156 228.802 222.423 255.631 213.265C274.156 206.941 295.018 206.952 314.85 212.306C322.276 213.694 329.709 216.148 337.201 219.297C359.569 228.956 381.619 246.568 401.009 273.113C408.225 282.774 415.128 293.611 421.774 305.784C442.533 345.233 464.532 386.755 478.961 429.078C487.564 454.312 493.393 479.779 494.85 505.492C495.526 534.145 485.915 548.836 471.568 557.478C466.839 560.34 461.678 562.458 456.088 564.366C455.929 564.421 455.929 564.421 455.769 564.475C447.505 565.335 439.516 567.527 431.531 570.253C417.638 574.995 403.969 581.444 390.235 586.132C366.92 594.091 342.929 596.932 315.108 578.079C307.45 573.918 299.679 568.904 292.115 562.928C269.317 545.214 247.536 520.021 229.355 490.746C222.995 481.506 217.061 471.943 211.555 462.59C210.792 460.354 209.816 458.013 209.054 455.777C198.981 426.231 192.352 393.191 192.094 363.147Z" fill="white"/>
<path d="M246.347 440.194L245.922 440.517C270.452 477.431 292.416 529.307 326.015 542.621C331.579 544.822 336.867 545.691 341.829 545.602C346.79 545.513 351.639 544.571 356.38 543.31C360.205 540.934 364.034 539.092 368.027 537.73C391.342 529.771 417.276 537.856 444.773 540.594C447.924 540.945 450.856 540.657 453.411 539.785C455.647 539.022 457.72 537.78 459.683 536.218C471.352 525.995 473.953 500.68 465.895 477.043C462.519 467.141 459.089 457.079 455.499 447.072C452.069 437.01 448.319 427.057 444.57 417.105C443.314 412.898 442.003 408.531 440.588 404.379C414.344 327.398 359.706 257.079 309.383 248.048C301.742 246.555 294.273 246.608 286.919 248.049C284.575 248.493 282.444 249.041 280.208 249.805C253.699 258.854 237.41 287.949 229.227 324.084C227.1 333.011 225.725 342.574 224.937 352.292C223.631 371.994 225.374 392.795 232.126 412.599C235.393 422.181 239.832 431.542 245.603 440.626L246.347 440.194ZM226.164 352.23C226.792 342.566 228.381 333.109 230.348 324.236C238.426 288.315 254.61 259.434 280.695 250.708C282.771 250 284.901 249.451 287.246 249.007C294.44 247.621 301.909 247.568 309.335 248.955C359.071 257.831 413.6 327.831 439.789 404.651C441.205 408.804 442.675 413.116 443.931 417.323C447.68 427.275 451.27 437.283 454.86 447.29C458.291 457.352 461.721 467.413 465.097 477.315C473.046 500.633 470.39 525.788 459.091 535.528C457.288 537.036 455.375 538.224 453.299 538.932C450.903 539.75 448.13 539.983 445.194 539.737C417.911 537.105 391.763 528.914 368.128 536.982C364.136 538.345 360.307 540.187 356.321 542.617C351.795 543.983 347.106 544.871 342.09 544.8C337.129 544.889 332 543.965 326.49 541.923C293.534 528.925 271.41 477.104 246.881 440.19C241.164 431.266 236.725 421.905 233.512 412.482C226.547 392.573 224.644 371.827 226.164 352.23Z" fill="white"/>
<path d="M258.762 414.384C259.528 417.154 260.454 419.869 261.38 422.584C290.836 508.987 378.359 535.096 426.588 518.633C432.845 512.931 437.175 506.283 440.165 498.843C443.156 491.404 444.752 483.014 444.959 474.207C445.325 465.345 444.302 456.067 442.421 446.367C440.116 436.991 437.223 427.459 433.956 417.877C413.756 358.624 377.23 299.596 335.396 283.566C321.005 277.959 306.643 276.621 293.856 279.381C291.725 279.93 289.595 280.479 287.519 281.188C277.138 284.731 268.112 291.2 260.759 300.485C251.925 311.702 245.893 326.955 243.625 346.45C241.325 361.142 245.005 376.646 250.124 391.659C252.951 399.43 255.938 407.147 258.762 414.384ZM244.159 346.446C246.321 327.165 252.513 311.858 261.187 300.695C268.381 291.465 277.461 285.156 287.682 281.667C289.758 280.958 291.729 280.464 293.859 279.915C306.646 277.155 320.794 278.387 335.185 283.994C376.592 299.814 413.331 358.948 433.477 418.04C436.744 427.623 439.637 437.155 441.888 446.371C443.768 456.07 444.792 465.349 444.426 474.21C444.219 483.018 442.568 491.248 439.577 498.687C436.587 506.127 432.257 512.775 426.105 518.263C402.31 526.385 368.519 524.013 336.935 508.763C305.51 493.459 276.345 465.437 261.699 422.475C260.773 419.76 259.848 417.045 259.082 414.275L258.922 414.33L259.082 414.275C256.418 406.983 253.271 399.321 250.603 391.495C245.644 376.428 241.804 360.979 244.159 346.446Z" fill="white"/>
<path d="M401.547 492.769C403.782 492.006 405.804 491.138 407.771 490.11C426.75 479.887 424.328 453.434 414.633 424.472C405.866 398.759 391.057 371.007 379.663 351.183C358.788 310.347 324.281 281.296 296.12 290.731C292.128 292.094 288.248 294.309 284.586 297.164C263.843 314.764 255.754 349.084 266.528 387.484C267.736 392.599 269.265 397.604 270.898 402.396C294.696 472.723 361.462 506.452 401.547 492.769ZM271.272 402.446C269.638 397.655 268.11 392.649 266.902 387.535C256.023 349.349 264.326 315.134 284.803 297.803C288.411 294.789 292.186 292.787 296.178 291.424C323.966 281.939 358.418 310.83 379.079 351.561L379.239 351.506L379.079 351.561C390.473 371.385 405.228 398.977 413.994 424.69C423.794 453.438 425.948 479.626 407.448 489.685C405.481 490.713 403.3 491.636 401.223 492.345C381.261 499.159 354.762 494.119 330.273 478.765C305.729 463.251 283.196 437.423 271.272 402.446Z" fill="white"/>
<path d="M387.126 467.736C390.32 466.646 393.297 464.917 396.215 462.494C409.477 451.192 406.358 424.264 397.211 397.433C391.929 381.941 384.728 366.569 377.225 353.975C356.968 317.564 327.488 298.03 302.575 306.534C298.902 307.788 295.287 309.735 291.835 312.161C281.179 322.217 269.017 338.315 275.278 356.681C275.932 358.598 276.799 360.62 277.986 362.532C301.943 409.27 350.98 479.896 387.126 467.736ZM275.812 356.678C269.659 338.63 281.662 322.587 292.158 312.586C295.555 310 299.065 308.267 302.738 307.013C327.332 298.618 356.543 317.887 376.801 354.298L376.96 354.244L376.801 354.298C384.249 366.733 391.505 382.264 396.732 397.596C405.879 424.428 408.784 451.25 395.892 462.07C392.974 464.492 389.943 466.062 386.909 467.097C351.35 479.414 302.208 409.001 278.306 362.423C277.333 360.616 276.465 358.594 275.812 356.678Z" fill="white"/>
<path d="M373.479 414.626C380.639 408.437 380.171 394.512 375.87 381.895C375.158 379.285 374.447 376.675 373.575 374.12C365.898 351.601 350.828 332.497 333.526 322.535C327.054 320.286 321.345 320.274 316.394 321.964C309.368 324.362 303.484 330.115 298.523 338.049C295.377 346.076 295.348 357.497 298.996 368.197C300.956 373.947 303.929 379.529 308.175 384.142C323.326 407.141 347.72 424.31 367.098 417.874C369.174 417.165 371.301 416.082 373.479 414.626ZM308.6 383.818L308.335 384.087L308.6 383.818C304.513 379.151 301.54 373.569 299.635 367.979C296.041 357.439 296.124 346.178 299.166 338.364C304.181 330.59 309.8 325.106 316.667 322.762C321.617 321.072 327.007 321.194 333.264 323.337C350.298 333.034 365.314 351.978 372.937 374.338C373.808 376.893 374.519 379.503 375.231 382.113C379.478 394.57 379.732 408.39 373.047 413.882C371.029 415.284 368.902 416.366 366.826 417.075C347.822 423.562 323.696 406.658 308.6 383.818Z" fill="white"/>
<path d="M358.704 384.366C359.894 378.967 359.096 371.395 356.482 363.729C353.488 354.945 348.359 346.176 341.76 340.94C334.893 335.439 327.728 333.249 322.458 335.048C318.306 336.465 315.344 340.329 314.695 346.791C314.796 353.888 318.169 363.257 320.626 371.511L320.786 371.456L320.626 371.511C329.613 382.707 342.934 395.633 351.932 392.74C354.646 391.813 357.082 389.021 358.704 384.366ZM351.823 392.42C343.199 395.364 329.933 382.598 320.945 371.402C318.274 363.042 315.116 353.779 314.909 346.896C315.613 340.594 318.469 336.944 322.461 335.582C327.572 333.837 334.523 335.922 341.39 341.423C347.829 346.713 353.117 355.428 356.058 364.052C358.617 371.558 359.575 379.076 358.33 384.315C356.708 388.97 354.538 391.494 351.823 392.42Z" fill="white"/>
</svg>
