<svg width="16" height="20" viewBox="0 0 16 20" fill="none" xmlns="http://www.w3.org/2000/svg">
<path d="M14 17.375C14.6213 17.375 15.125 17.8787 15.125 18.5C15.125 19.1213 14.6213 19.625 14 19.625H2C1.37868 19.625 0.875 19.1213 0.875 18.5C0.875 17.8787 1.37868 17.375 2 17.375H14ZM8 0.875C8.62132 0.875 9.125 1.37868 9.125 2V11.2835L11.7045 8.7045C12.1039 8.3051 12.7289 8.2688 13.1693 8.59558L13.2955 8.7045C13.7348 9.14384 13.7348 9.85616 13.2955 10.2955L8.79549 14.7955C8.75859 14.8324 8.71914 14.8667 8.67743 14.8983C8.66169 14.9102 8.64599 14.9215 8.63007 14.9323C8.60549 14.9488 8.57976 14.9648 8.55337 14.9797C8.53194 14.9919 8.50999 15.0034 8.48776 15.0141C8.46127 15.0268 8.43364 15.0388 8.40546 15.0497C8.38918 15.056 8.37364 15.0615 8.358 15.0668C8.32593 15.0776 8.29224 15.0872 8.25795 15.0953C8.23959 15.0995 8.22205 15.1031 8.20445 15.1064C8.13903 15.1186 8.07027 15.125 8 15.125L8.11009 15.1196C8.08814 15.1218 8.06614 15.1233 8.04411 15.1241L8 15.125C7.98528 15.125 7.97062 15.1247 7.95604 15.1242C7.93436 15.1233 7.91135 15.1218 7.88841 15.1195C7.85583 15.1163 7.82483 15.1119 7.79427 15.1062C7.77795 15.1031 7.76041 15.0995 7.74295 15.0954C7.70776 15.0872 7.67407 15.0776 7.64107 15.0665C7.62636 15.0615 7.61082 15.056 7.59537 15.05C7.56636 15.0388 7.53873 15.0268 7.5117 15.0138C7.49001 15.0034 7.46806 14.9919 7.44643 14.9797C7.42024 14.9648 7.39451 14.9488 7.36951 14.9319C7.3116 14.8927 7.25617 14.8472 7.2045 14.7955L7.32257 14.8983C7.28086 14.8667 7.2414 14.8324 7.2045 14.7955L2.7045 10.2955C2.26516 9.85616 2.26516 9.14384 2.7045 8.7045C3.14384 8.26516 3.85616 8.26516 4.2955 8.7045L6.875 11.2835V2C6.875 1.43046 7.29823 0.959764 7.84734 0.88527L8 0.875Z" fill="#B14101"/>
</svg>
