<svg width="322" height="348" viewBox="0 0 322 348" fill="none" xmlns="http://www.w3.org/2000/svg">
<g clip-path="url(#clip0_75_5281)">
<path d="M-243.1 -270.712C-246.788 -263.748 -250.366 -256.465 -253.302 -248.865C-267.463 -213.008 -271.338 -171.034 -254.514 -121.684C-253.588 -118.968 -252.717 -116.413 -251.632 -113.753C-247.178 -102.257 -241.708 -90.3957 -235.008 -78.0627C-232.783 -72.5818 -230.663 -66.8868 -228.757 -61.297C-207.468 1.1496 -208.265 64.1816 -186.703 127.427C-185.778 130.142 -184.907 132.697 -183.821 135.358C-180.674 143.02 -176.678 150.036 -172.257 156.728C-134.381 202.459 -107.648 280.876 -60.1077 296.385C-24.6468 308.885 1.63733 282.44 37.1784 306.68C43.7116 310.156 50.1396 313.845 56.6728 317.321C76.0076 328.015 95.2299 337.857 112.586 340.134C119.635 340.937 126.462 340.568 132.85 338.388C148.587 330.163 162.379 318.323 174.359 299.079C179.285 293.653 184.315 288.013 188.917 282.163C206.284 270.352 217.626 251.325 225.367 228.535C227.983 221.045 230.222 212.97 231.979 204.526C236.03 118.096 283.632 17.6915 253.791 -70.3631C252.593 -73.8767 251.236 -77.3359 249.824 -80.9547C246.027 -89.9998 241.377 -98.9321 235.555 -107.642C190.351 -163.887 176.477 -250.082 135.015 -313.131C117.393 -338.673 97.9086 -363.403 74.523 -381.273C67.5977 -387.467 60.5708 -392.913 53.1773 -397.343C22.5364 -415.055 -3.90747 -388.555 -36.2686 -400.33C-43.4769 -401.079 -50.6815 -401.294 -57.8317 -401.35C-62.2597 -401.264 -66.6877 -401.179 -71.221 -400.88L-73.297 -400.171C-72.9232 -400.121 -72.4949 -399.91 -71.9613 -399.914C-67.2684 -400.268 -62.6807 -400.408 -58.0385 -400.388C-51.1025 -400.437 -43.8435 -400.062 -36.6897 -399.473C-3.63526 -387.756 22.7034 -414.042 52.5422 -396.591C59.776 -392.107 66.9626 -386.715 73.6738 -380.626C97.0049 -362.916 116.489 -338.187 134.057 -312.803C175.25 -250.019 189.284 -163.879 234.597 -107.315C240.205 -98.7102 244.855 -89.7779 248.651 -80.7328C250.009 -77.2737 251.421 -73.6549 252.619 -70.1413C282.456 17.3797 235.014 117.73 230.803 204.214C229.261 212.764 227.181 220.784 224.564 228.274C216.983 251.009 205.587 269.876 188.111 281.369C183.455 287.059 178.638 292.804 173.554 298.284C161.573 317.528 148.046 329.099 132.469 337.27C126.241 339.396 119.573 339.71 112.739 339.012C95.5964 336.84 76.4286 327.158 57.1991 316.249C50.8255 312.72 44.2378 309.085 37.8643 305.555C1.68083 280.999 -24.763 307.498 -59.6359 295.154C-106.533 279.961 -133.372 201.758 -171.302 155.867C-175.669 149.335 -179.451 142.424 -182.598 134.762C-183.524 132.047 -184.555 129.546 -185.48 126.831C-206.933 63.9052 -206.19 0.713534 -227.534 -61.8927C-229.44 -67.4826 -231.559 -73.1776 -233.839 -78.8182C-240.539 -91.1512 -246.009 -103.013 -250.409 -114.348C-251.494 -117.009 -252.42 -119.724 -253.291 -122.279C-270.006 -171.31 -266.237 -213.07 -252.021 -248.768C-249.085 -256.367 -245.666 -263.596 -241.819 -270.615C-231.178 -306.34 -215.746 -335.856 -196.369 -357.982L-198.126 -357.383C-217.608 -335.042 -232.561 -305.69 -243.1 -270.712Z" fill="white"/>
<path d="M-240.164 -239.089C-253.894 -202.487 -256.208 -158.55 -238.349 -106.165C-237.968 -105.047 -237.532 -103.769 -237.151 -102.651C-232.962 -90.8869 -227.757 -78.7565 -221.481 -66.1002C-207.974 -10.2684 -198.321 43.6699 -180.517 95.8952C-177.468 104.839 -174.099 113.674 -170.516 122.614L-170.357 122.559L-170.516 122.614C-165.195 128.286 -159.874 133.958 -154.444 139.949C-117.574 179.07 -103.699 265.265 -55.5931 269.883C-18.4772 274.686 16.1484 266.433 54.1798 295.885C60.8256 300.214 67.3117 304.597 74.0084 308.551C80.5998 312.72 87.2964 316.674 93.9894 320.095C99.8222 322.562 105.325 323.536 110.391 323.233C113.379 323.105 116.362 322.443 119.077 321.516C120.993 320.862 123.015 319.994 124.822 319.02C161.77 291.431 176.701 235.342 195.457 184.722C198.708 176.48 201.906 168.078 205.426 160.102C237.255 101.81 240.156 10.9581 211.68 -72.5706C208.522 -81.8338 205.045 -90.988 201.088 -99.9786C197.389 -110.305 193.371 -120.523 189.139 -130.846C184.924 -146.345 180.173 -162.375 174.728 -178.346C151.86 -245.424 118.056 -312.157 71.0736 -347.47C63.6147 -353.66 56.0542 -359.103 48.236 -363.209C32.5452 -371.582 15.9762 -375.732 -1.30039 -374.114C-8.83538 -375.821 -16.3159 -377.368 -23.7384 -378.222C-29.3461 -378.983 -35.0045 -379.369 -40.5541 -379.436C-46.1582 -379.663 -51.5989 -379.41 -57.0395 -379.158C-87.0524 -382.998 -117.138 -381.822 -143.807 -372.718C-185.169 -358.599 -218.342 -325.167 -230.659 -261.411C-234.183 -253.968 -237.388 -246.634 -240.164 -239.089ZM-144.072 -372.449C-117.562 -381.498 -87.477 -382.675 -57.4642 -378.834C-52.0779 -379.247 -46.4231 -379.394 -40.9788 -379.113C-35.4292 -379.046 -29.876 -378.445 -24.3227 -377.845C-16.8458 -376.831 -9.26004 -375.498 -1.88475 -373.736C15.3919 -375.355 31.9064 -371.364 47.5972 -362.991C55.4698 -358.725 62.9759 -353.442 70.4348 -347.252C117.362 -312.099 151.166 -245.366 174.035 -178.288C179.479 -162.316 184.231 -146.287 188.445 -130.787C192.997 -120.574 197.07 -110.196 200.714 -100.029C204.671 -91.0387 208.148 -81.8845 211.306 -72.6213C239.782 10.9074 236.827 101.599 205.103 159.677C201.637 167.814 198.385 176.055 195.242 184.617C176.486 235.237 161.556 291.326 124.713 318.701C122.906 319.674 120.884 320.543 118.968 321.197C116.253 322.124 113.429 322.731 110.283 322.914C105.161 323.057 99.873 322.188 94.0402 319.721C87.2928 316.141 80.6506 312.346 74.0592 308.177C67.4678 304.009 60.822 299.68 54.2306 295.511C15.9851 265.954 -18.7458 274.421 -55.702 269.563C-103.434 264.996 -117.469 178.856 -154.339 139.735C-159.609 133.689 -165.09 128.072 -170.251 122.345C-173.78 113.565 -177.203 104.57 -180.252 95.6265C-198.056 43.4011 -207.549 -10.5916 -221.216 -66.3689C-227.492 -79.0253 -232.697 -91.1556 -236.886 -102.92C-237.267 -104.038 -237.703 -105.315 -238.084 -106.433C-255.943 -158.818 -253.574 -202.596 -239.845 -239.198C-237.068 -246.743 -233.864 -254.077 -230.713 -261.571C-218.288 -325.007 -185.274 -358.385 -144.072 -372.449Z" fill="white"/>
<path d="M-236.68 -127.418C-231.181 -111.287 -223.007 -94.1083 -211.41 -75.78C-208.902 -67.8997 -206.234 -60.0738 -203.726 -52.1935C-202.909 -49.7979 -202.147 -47.562 -201.33 -45.1663C-190.876 -14.502 -183.148 15.4881 -180.094 48.5003L-179.935 48.4458L-180.094 48.5003C-180.094 48.5003 -180.094 48.5003 -180.04 48.66C-172.853 69.7417 -163.219 89.6319 -151.993 108.443C-148.269 114.66 -144.385 120.823 -140.182 126.877C-95.9168 217.496 -26.6745 277.838 40.3372 269.405C46.58 269.414 52.5505 268.624 58.3033 267.195C60.9673 266.642 63.6822 265.715 66.2373 264.843C75.0207 261.845 83.4737 257.355 91.4948 252.121C97.8681 247.806 104.078 243.011 110.23 237.524C114.201 232.959 118.385 228.5 122.624 224.2C144.611 201.361 170.787 182.442 188.186 151.898C191.612 145.736 194.715 139.149 197.386 131.819C211.184 73.977 213.683 10.1856 199.348 -57.4875C197.416 -66.8128 195.111 -76.1888 192.432 -85.6155C190.298 -93.4452 187.844 -101.166 185.231 -108.832C184.686 -110.429 184.142 -112.026 183.597 -113.623C181.187 -122.785 178.457 -131.838 175.677 -140.517C155.045 -200.513 121.884 -259.085 82.5273 -302.884C76.5602 -309.405 70.2228 -315.444 63.8891 -320.948C44.8372 -337.089 24.0652 -347.293 2.08111 -347.455C-5.61352 -349.108 -13.4642 -350.172 -21.2568 -350.543C-26.5415 -350.879 -31.7171 -350.895 -36.7839 -350.592C-41.9052 -350.448 -47.1317 -350.091 -52.3038 -349.573C-83.2311 -354.528 -113.585 -353.616 -140.414 -344.458C-181.137 -330.557 -213.994 -297.768 -229.81 -238.524C-233.551 -231.719 -236.705 -224.759 -239.267 -217.109C-247.633 -191.967 -248.496 -162.075 -236.68 -127.418ZM-229.171 -238.742C-213.355 -297.986 -180.603 -330.561 -140.04 -344.407C-113.211 -353.566 -83.017 -354.423 -52.0896 -349.468C-46.9176 -349.985 -41.6911 -350.343 -36.4101 -350.541C-31.2889 -350.685 -26.1131 -350.668 -20.883 -350.492C-13.0904 -350.121 -5.39936 -349.002 2.45497 -347.404C24.439 -347.242 44.9969 -337.143 64.0488 -321.003C70.3281 -315.658 76.6654 -309.62 82.6326 -303.098C121.934 -259.459 155.096 -200.887 175.728 -140.891C178.508 -132.212 181.078 -123.104 183.703 -113.837C184.247 -112.24 184.791 -110.643 185.336 -109.046C188.004 -101.22 190.458 -93.4997 192.538 -85.8298C195.162 -76.5628 197.467 -67.1867 199.398 -57.8614C213.733 9.81172 211.235 73.6031 197.437 131.445C194.766 138.776 191.663 145.362 188.237 151.524C170.997 182.013 144.822 200.933 122.835 223.771C118.436 228.126 114.251 232.585 110.44 237.095C104.234 242.423 98.0786 247.377 91.6509 251.533C83.5245 256.981 75.1767 261.257 66.3934 264.255C63.8382 265.127 61.0689 265.894 58.4593 266.607C52.7066 268.036 46.6816 268.666 40.4933 268.817C-26.3587 277.195 -95.3869 216.959 -139.757 126.553C-143.801 120.445 -147.844 114.337 -151.623 107.96C-162.954 89.3631 -172.428 69.4185 -179.615 48.3368C-182.669 15.3246 -190.397 -14.6655 -200.851 -45.3298C-201.668 -47.7255 -202.43 -49.9614 -203.247 -52.3571C-205.915 -60.1829 -208.423 -68.0632 -210.931 -75.9435C-222.368 -94.3264 -230.702 -111.451 -236.147 -127.422C-247.962 -162.079 -247.045 -191.811 -238.415 -217.222C-236.066 -224.977 -232.913 -231.937 -229.171 -238.742Z" fill="white"/>
<path d="M-125.943 102.227C-122.005 108.549 -118.121 114.712 -113.918 120.766C-104.103 135.958 -94.7205 150.407 -82.4342 160.298C-43.9207 182.276 -8.88105 187.788 26.2213 225.907C32.1702 229.76 38.0574 232.386 43.7268 234.373C56.3467 238.446 68.1354 237.987 79.1545 234.226C82.9873 232.918 86.8708 231.235 90.4313 229.129C96.4925 225.99 101.853 221.842 107.37 217.106C112.081 211.576 116.792 206.045 121.503 200.514C126.214 194.984 131.03 189.239 135.686 183.549C145.039 170.193 154.734 159.931 162.007 146.75C166.017 140.211 169.704 133.246 173.123 126.017C176.542 118.788 179.638 111.135 182.196 102.951C192.743 76.8857 196.999 43.8744 191.144 6.82646C190.178 -1.75868 188.784 -10.5542 187.016 -19.4004C183.644 -36.6137 179.045 -53.7649 173.328 -70.5344C173.164 -71.0136 173.001 -71.4927 172.838 -71.9718C170.573 -83.3227 167.828 -94.5101 164.656 -105.908C162.688 -112.725 160.561 -119.487 158.274 -126.195C156.695 -130.826 154.957 -135.404 153.218 -139.981C148.819 -151.316 143.991 -162.862 138.47 -174.35C129.918 -192.113 120.59 -206.402 110.191 -221.216C105.828 -227.216 101.52 -233.055 97.1061 -238.68C79.5059 -261.021 60.9149 -279.993 40.4439 -292.975C33.0505 -297.405 25.5554 -301.086 17.9587 -304.02C5.44028 -308.84 -7.22321 -311.471 -19.7669 -312.182C-25.9589 -312.564 -32.3613 -312.518 -38.4952 -312.207C-64.7187 -315.915 -89.8386 -314.294 -112.196 -306.662C-154.197 -292.325 -186.981 -256.708 -203.094 -194.153C-205.98 -186.928 -208.273 -179.013 -209.71 -170.677C-213.51 -148.876 -211.629 -123.487 -201.338 -93.3019C-199.814 -88.83 -198.02 -84.0932 -196.068 -79.411C-194.303 -71.0984 -192.165 -62.7351 -189.813 -54.2667C-187.461 -45.7982 -184.895 -37.2245 -182.169 -28.7054C-179.443 -20.1863 -176.662 -11.5074 -173.667 -2.72338L-173.188 -2.88692L-173.667 -2.72338C-160.658 34.9137 -145.206 70.8255 -125.943 102.227ZM-181.21 -29.0325C-183.936 -37.5516 -186.503 -46.1253 -188.855 -54.5937C-191.207 -63.0622 -193.345 -71.4255 -195.164 -79.8977C-197.171 -84.7397 -198.91 -89.3168 -200.434 -93.7887C-210.671 -123.814 -212.497 -149.044 -208.803 -170.63C-207.366 -178.966 -205.177 -186.666 -202.292 -193.892C-186.339 -256.392 -153.605 -291.636 -111.924 -305.864C-89.7261 -313.441 -64.7658 -315.008 -38.5424 -311.3C-32.2488 -311.665 -26.006 -311.657 -19.814 -311.274C-7.43007 -310.509 5.23344 -307.878 17.5377 -303.164C25.0799 -300.389 32.4153 -296.653 39.9685 -292.278C60.2253 -279.401 78.7618 -260.589 96.3621 -238.248C100.776 -232.623 105.084 -226.783 109.393 -220.944C119.792 -206.129 128.96 -191.786 137.617 -174.237C143.138 -162.749 148.071 -151.418 152.365 -139.868C154.104 -135.291 155.683 -130.659 157.262 -126.027C159.549 -119.32 161.676 -112.557 163.643 -105.74C166.816 -94.3427 169.56 -83.1554 171.825 -71.8045C171.988 -71.3254 172.206 -70.6865 172.37 -70.2074C178.032 -53.5975 182.686 -36.2867 186.004 -19.2331C187.771 -10.3868 189.165 -1.59132 190.131 6.99382C195.932 43.8821 191.781 76.6792 181.18 102.585C178.567 110.609 175.471 118.262 172.107 125.651C168.688 132.88 165.001 139.844 160.99 146.384C153.822 159.35 144.023 169.827 134.67 183.182C130.014 188.873 125.357 194.563 120.646 200.094C115.935 205.624 111.224 211.155 106.513 216.685C101.316 221.312 95.7412 225.355 90.0538 228.544C86.3336 230.706 82.6098 232.333 78.7771 233.642C67.7579 237.403 56.1289 237.807 43.8828 233.785C38.2678 231.958 32.5404 229.277 26.5915 225.424C-8.77945 187.04 -43.8191 181.528 -82.1185 159.656C-94.1906 149.869 -103.464 135.74 -113.334 120.388C-117.537 114.334 -121.421 108.172 -125.359 101.849C-144.622 70.4477 -159.86 34.6411 -172.869 -2.99594C-175.649 -11.6748 -178.43 -20.3536 -181.21 -29.0325Z" fill="white"/>
<path d="M-137.748 22.0988L-137.589 22.0443L-137.748 22.0988C-134.714 28.9079 -131.574 35.5029 -128.383 41.7239C-125.193 47.9449 -121.952 53.792 -118.765 59.4794C-114.554 66.6003 -110.293 73.3473 -105.981 79.7204C-101.669 86.0935 -97.1464 92.0381 -92.7871 97.5036C-70.1926 124.559 -43.5512 150.41 -14.9105 156.502C-7.20495 159.756 0.656662 162.421 8.46016 164.393C35.5583 171.189 63.0301 170.192 87.6234 161.797C112.855 153.184 135.1 136.854 151.425 113.095C155.167 106.291 158.212 99.0112 160.451 90.9368C162.483 83.8244 164.033 76.3419 165.1 68.4893C166.167 60.6368 166.696 52.2544 166.798 43.6616C163.302 23.9944 167.04 8.81137 161.99 -11.752C160.27 -21.5057 158.335 -31.3647 155.812 -41.3795C152.244 -56.0298 147.928 -70.7814 142.864 -85.6344C137.474 -101.446 131.176 -117.304 124.399 -132.998C120.755 -143.165 116.635 -152.635 111.88 -161.353C106.53 -171.294 100.654 -180.164 94.0405 -187.535C63.0979 -218.159 33.0475 -274.405 1.83368 -274.448C-3.50171 -274.41 -8.78263 -274.212 -14.2233 -273.959C-19.6639 -273.707 -25.0501 -273.294 -30.596 -272.828C-53.8794 -275.756 -76.8142 -274.524 -97.0957 -267.601C-137.339 -253.864 -167.561 -218.051 -171.472 -150.034C-172.753 -142.287 -173.605 -134.329 -173.975 -126.001C-174.345 -117.673 -174.447 -109.08 -173.906 -100.172C-173.263 -92.0114 -172.032 -83.695 -170.322 -75.5421C-168.061 -64.7249 -164.787 -54.075 -161.139 -43.3745C-154.932 -25.1676 -147.498 -7.02286 -141.345 11.0243C-140.093 14.6976 -138.841 18.3709 -137.748 22.0988ZM-160.66 -43.538C-164.308 -54.2386 -167.582 -64.8884 -169.843 -75.7057C-171.553 -83.8585 -172.784 -92.1749 -173.426 -100.335C-173.968 -109.244 -173.866 -117.837 -173.496 -126.164C-173.126 -134.492 -172.274 -142.45 -170.993 -150.197C-167.028 -218.055 -137.071 -253.599 -96.9868 -267.281C-76.7053 -274.205 -53.9846 -275.542 -30.7012 -272.613C-25.1553 -273.08 -19.7691 -273.492 -14.3285 -273.745C-8.88787 -273.997 -3.60695 -274.195 1.72844 -274.234C32.3542 -274.347 62.6697 -218.369 93.6666 -187.585C100.28 -180.215 106.156 -171.345 111.507 -161.404C116.102 -152.631 120.222 -143.161 124.026 -133.049C130.962 -117.409 137.1 -101.496 142.436 -85.8448C147.5 -70.9918 151.815 -56.2402 155.384 -41.5899C157.747 -31.5206 159.841 -21.7161 161.562 -11.9623C166.557 8.44129 162.979 23.5698 166.315 43.2915C166.213 51.8843 165.684 60.2667 164.617 68.1193C163.55 75.9718 162.001 83.4543 160.128 90.5121C157.889 98.5866 154.844 105.866 151.262 112.616C135.042 136.161 112.797 152.49 87.725 161.049C63.1317 169.444 35.8196 170.387 8.77593 163.75C0.972418 161.778 -6.83474 159.273 -14.5947 155.859C-43.181 149.927 -69.6627 124.021 -92.2572 96.9661C-96.6709 91.3409 -101.139 85.556 -105.451 79.183C-109.763 72.8099 -114.024 66.0629 -118.235 58.9419C-121.581 53.3091 -124.663 47.4075 -127.854 41.1864C-131.044 34.9654 -134.129 28.5302 -137.059 21.5068C-138.151 17.779 -139.404 14.1056 -140.656 10.4323C-147.019 -7.18641 -154.453 -25.3311 -160.66 -43.538Z" fill="white"/>
<path d="M-125.553 10.804C-120.152 20.3712 -114.112 29.7204 -107.912 39.0151C-89.6768 68.4494 -67.9498 93.4825 -45.1524 111.197C-37.5883 117.173 -29.8174 122.187 -22.159 126.348C5.71619 145.36 29.8668 142.465 53.1825 134.506C67.0761 129.764 80.5305 123.21 94.4241 118.467C102.409 115.741 110.397 113.549 118.502 112.744C118.662 112.69 118.662 112.69 118.662 112.69L118.821 112.635C124.411 110.727 129.572 108.609 134.301 105.746C148.808 97.0503 158.309 82.0395 157.793 53.3319C156.497 27.5651 150.507 2.15218 141.905 -23.0819C127.476 -65.4049 105.476 -106.926 84.6634 -146.535C78.1771 -158.763 71.1138 -169.546 63.898 -179.207C44.454 -205.911 22.4042 -223.524 0.0352689 -233.182C-7.45613 -236.331 -14.8894 -238.786 -22.3154 -240.173C-41.9875 -245.582 -63.064 -245.698 -81.7485 -239.32C-108.897 -230.053 -131.098 -207.319 -137.764 -167.78C-139.314 -160.298 -140.649 -152.71 -141.611 -145.072C-142.732 -137.379 -143.694 -129.74 -144.76 -121.888C-145.54 -111.102 -145.892 -100.106 -145.496 -89.0087C-145.238 -58.9651 -138.609 -25.9254 -128.482 3.78059C-127.665 6.17623 -126.903 8.41214 -126.086 10.8078L-125.607 10.6442L-125.553 10.804ZM-144.908 -88.8528C-145.144 -100.005 -144.952 -110.946 -144.172 -121.732C-143.051 -129.425 -142.144 -137.223 -140.968 -144.756C-139.847 -152.449 -138.726 -160.142 -137.122 -167.464C-130.401 -206.844 -108.2 -229.577 -81.3711 -238.736C-62.8463 -245.059 -41.9839 -245.049 -22.1521 -239.694C-14.7261 -238.307 -7.29279 -235.852 0.198598 -232.703C22.5675 -223.044 44.6173 -205.432 64.0069 -178.887C71.2227 -169.226 78.1263 -158.389 84.7723 -146.216C105.531 -106.767 127.53 -65.2452 141.959 -22.9222C150.562 2.31185 156.391 27.7793 157.848 53.4916C158.524 82.1447 148.913 96.8361 134.566 105.478C129.837 108.34 124.676 110.458 119.086 112.366C118.927 112.421 118.927 112.421 118.767 112.475C110.503 113.335 102.514 115.527 94.5293 118.253C80.6357 122.995 66.9672 129.444 53.2333 134.132C29.9176 142.091 5.92671 144.932 -21.894 126.079C-29.5524 121.918 -37.3233 116.904 -44.8874 110.928C-67.6849 93.2138 -89.4663 68.0209 -107.647 38.7463C-114.007 29.5062 -119.941 19.9428 -125.447 10.5897C-126.21 8.3538 -127.186 6.01267 -127.948 3.77674C-138.021 -25.7695 -144.65 -58.8092 -144.908 -88.8528Z" fill="white"/>
<path d="M-90.6529 -11.806L-91.0775 -11.4827C-66.548 25.4313 -44.5841 77.3065 -10.9851 90.6206C-5.421 92.822 -0.132749 93.6913 4.82882 93.6024C9.79038 93.5134 14.6394 92.5714 19.3796 91.3099C23.205 88.9343 27.0341 87.0924 31.0266 85.7295C54.3424 77.7707 80.2757 85.8564 107.773 88.5943C110.924 88.9453 113.856 88.6574 116.411 87.7852C118.647 87.022 120.72 85.7797 122.683 84.2179C134.352 73.9945 136.953 48.6799 128.895 25.0428C125.519 15.1408 122.089 5.07904 118.499 -4.92819C115.069 -14.9899 111.319 -24.9427 107.57 -34.8954C106.314 -39.1024 105.003 -43.469 103.588 -47.6215C77.3438 -124.602 22.7063 -194.921 -27.6174 -203.952C-35.2577 -205.445 -42.7272 -205.392 -50.0806 -203.951C-52.4253 -203.508 -54.5558 -202.959 -56.7916 -202.195C-83.3014 -193.146 -99.5898 -164.051 -107.773 -127.916C-109.9 -118.989 -111.275 -109.426 -112.063 -99.7078C-113.369 -80.006 -111.626 -59.2054 -104.874 -39.4014C-101.607 -29.8188 -97.1682 -20.458 -91.3969 -11.3737L-90.6529 -11.806ZM-110.836 -99.77C-110.208 -109.434 -108.619 -118.891 -106.652 -127.764C-98.5735 -163.685 -82.3904 -192.566 -56.3052 -201.292C-54.2291 -202 -52.0986 -202.549 -49.7539 -202.993C-42.5603 -204.379 -35.0907 -204.432 -27.6646 -203.045C22.0711 -194.169 76.5997 -124.169 102.789 -47.3489C104.205 -43.1965 105.675 -38.8843 106.931 -34.6773C110.68 -24.7246 114.27 -14.7174 117.86 -4.71014C121.291 5.3516 124.721 15.4133 128.097 25.3154C136.046 48.633 133.39 73.7879 122.091 83.5284C120.288 85.0357 118.375 86.2235 116.299 86.9321C113.903 87.7498 111.13 87.9832 108.194 87.7374C80.9108 85.1047 54.7634 76.9138 31.1282 84.9817C27.1357 86.3445 23.3066 88.1864 19.3215 90.6166C14.7955 91.9832 10.1062 92.8707 5.09014 92.8C0.128562 92.889 -4.99998 91.9651 -10.5097 89.9234C-43.4662 76.9249 -65.5898 25.1042 -90.1193 -11.8098C-95.8361 -20.7344 -100.275 -30.0952 -103.488 -39.518C-110.453 -59.4273 -112.356 -80.1734 -110.836 -99.77Z" fill="white"/>
<path d="M-78.2375 -37.6158C-77.4716 -34.8462 -76.546 -32.1311 -75.6204 -29.416C-46.1641 56.9871 41.3591 83.0959 89.5878 66.633C95.8449 60.9312 100.175 54.2826 103.165 46.8431C106.156 39.4037 107.752 31.0136 107.959 22.2066C108.325 13.3451 107.302 4.06656 105.421 -5.63273C103.116 -15.0088 100.223 -24.5407 96.9563 -34.1233C76.7561 -93.3757 40.2304 -152.404 -1.60408 -168.434C-15.9953 -174.041 -30.3574 -175.379 -43.1441 -172.619C-45.2746 -172.07 -47.4052 -171.521 -49.4813 -170.812C-59.8616 -167.269 -68.888 -160.8 -76.2412 -151.515C-85.0751 -140.298 -91.1069 -125.045 -93.3748 -105.55C-95.6754 -90.8576 -91.9946 -75.3542 -86.8765 -60.3415C-84.0489 -52.5702 -81.0615 -44.8534 -78.2375 -37.6158ZM-92.8412 -105.554C-90.6786 -124.835 -84.4871 -140.142 -75.8129 -151.305C-68.6194 -160.535 -59.5386 -166.845 -49.3179 -170.333C-47.2419 -171.042 -45.271 -171.536 -43.1405 -172.085C-30.3538 -174.846 -16.2058 -173.613 -1.81457 -168.006C39.5916 -152.186 76.3315 -93.0525 96.4772 -33.9598C99.7441 -24.3771 102.637 -14.8452 104.888 -5.6289C106.768 4.07038 107.792 13.3489 107.426 22.2104C107.219 31.0175 105.568 39.2478 102.577 46.6873C99.5868 54.1267 95.257 60.7753 89.1051 66.2629C65.3101 74.3853 31.5191 72.0128 -0.0654893 56.763C-31.4904 41.4587 -60.6545 13.4369 -75.301 -29.5251C-76.2266 -32.2401 -77.1522 -34.9552 -77.9181 -37.7248L-78.0778 -37.6703L-77.9181 -37.7248C-80.5824 -45.0169 -83.7295 -52.6792 -86.3974 -60.505C-91.3558 -75.5723 -95.1963 -91.0211 -92.8412 -105.554Z" fill="white"/>
<path d="M64.5465 40.7691C66.7823 40.0059 68.8039 39.1376 70.7711 38.1095C89.7497 27.8869 87.328 1.43417 77.6326 -27.528C68.8664 -53.2414 54.057 -80.9927 42.6632 -100.817C21.7884 -141.653 -12.7186 -170.704 -40.88 -161.269C-44.8724 -159.907 -48.7524 -157.691 -52.4145 -154.836C-73.1568 -137.236 -81.246 -102.916 -70.4723 -64.5159C-69.2636 -59.4014 -67.7354 -54.3958 -66.1019 -49.6045C-42.3044 20.7227 24.4622 54.4519 64.5465 40.7691ZM-65.7281 -49.5538C-67.3615 -54.3451 -68.8897 -59.3507 -70.0985 -64.4653C-80.9774 -102.651 -72.6741 -136.866 -52.1967 -154.197C-48.589 -157.212 -44.8143 -159.213 -40.8219 -160.576C-13.0343 -170.061 21.4182 -141.17 42.0789 -100.439L42.2386 -100.494L42.0789 -100.439C53.4727 -80.615 68.2276 -53.0233 76.9938 -27.3099C86.7944 1.438 88.9476 27.6258 70.4481 37.6848C68.4809 38.7129 66.2996 39.6358 64.2235 40.3445C44.2612 47.1586 17.7617 42.1188 -6.72738 26.7647C-31.2709 11.2509 -53.8039 -14.5772 -65.7281 -49.5538Z" fill="white"/>
<path d="M50.1265 15.7362C53.3205 14.646 56.2966 12.9169 59.2147 10.4944C72.4768 -0.807856 69.3581 -27.7359 60.2108 -54.5673C54.9294 -70.0592 47.7279 -85.4306 40.2252 -98.0248C19.9675 -134.436 -9.51228 -153.97 -34.4253 -145.466C-38.0983 -144.212 -41.7133 -142.265 -45.1649 -139.839C-55.821 -129.783 -67.9831 -113.685 -61.7216 -95.3187C-61.0682 -93.4021 -60.2007 -91.3804 -59.0137 -89.4677C-35.0573 -42.7299 13.9802 27.8965 50.1265 15.7362ZM-61.188 -95.3225C-67.3406 -113.37 -55.3382 -129.413 -44.8419 -139.414C-41.4447 -142 -37.935 -143.733 -34.2619 -144.987C-9.66832 -153.382 19.5429 -134.113 39.8005 -97.7016L39.9602 -97.7561L39.8005 -97.7016C47.2488 -85.2671 54.5047 -69.736 59.7317 -54.4037C68.879 -27.5724 71.7835 -0.749525 58.8917 10.0698C55.9736 12.4922 52.943 14.0616 49.9087 15.0974C14.3504 27.4135 -34.7923 -42.9987 -58.6943 -89.5767C-59.6671 -91.3842 -60.5346 -93.406 -61.188 -95.3225Z" fill="white"/>
</g>
<defs>
<clipPath id="clip0_75_5281">
<rect width="322" height="348" fill="white"/>
</clipPath>
</defs>
</svg>
