<svg width="106" height="60" viewBox="0 0 106 60" fill="none" xmlns="http://www.w3.org/2000/svg">
<path d="M42.6569 3.77312C42.6569 4.4143 42.5005 5.00617 42.1876 5.5487C41.9033 6.09125 41.6473 6.53514 41.4198 6.88039C41.3061 7.02836 41.1781 7.10234 41.0359 7.10234C40.8937 7.10234 40.7658 7.0037 40.652 6.80641C40.5382 6.5598 40.4814 6.31319 40.4814 6.06659C40.4814 5.77066 40.5667 5.52405 40.7373 5.32676C40.8511 5.17879 41.0075 4.9815 41.2065 4.7349C41.434 4.48829 41.5478 4.16769 41.5478 3.77312C41.5478 3.23058 41.3914 2.81135 41.0786 2.51542C40.7942 2.17016 40.4956 1.99753 40.1828 1.99753C38.9599 1.99753 38.0215 2.63872 37.3674 3.92109C36.7418 5.15413 36.301 6.78175 36.0451 8.80395C35.7891 10.8261 35.6185 13.021 35.5332 15.3884C35.4763 17.7559 35.4052 20.074 35.3199 22.3428C35.263 24.5623 35.0924 26.4858 34.808 28.1134C34.4383 30.3822 34.1824 32.651 34.0402 34.9199C33.898 37.1887 33.6705 39.4821 33.3577 41.8002C33.1586 43.4279 33.0022 45.0802 32.8884 46.7571C32.8031 48.3847 32.6609 49.9384 32.4619 51.418C32.2628 52.8483 31.9073 54.1307 31.3955 55.2651C31.2533 55.6597 30.9689 55.9803 30.5423 56.2269C30.1442 56.4735 29.7034 56.5968 29.22 56.5968C28.3384 56.5968 27.5706 55.9803 26.9165 54.7472C26.2624 53.4649 25.6937 51.9112 25.2102 50.0863C24.6983 51.9112 24.0727 53.6375 23.3333 55.2651C22.5939 56.8434 21.6839 58.0518 20.6033 58.8903C20.4326 59.0382 20.1198 59.2602 19.6648 59.5561C19.2098 59.852 18.8828 60 18.6837 60C17.0627 60 15.8115 59.1862 14.9299 57.5586C14.0768 55.931 13.6502 53.6375 13.6502 50.6782C13.6502 48.0641 13.835 45.6967 14.2047 43.5758C14.5744 41.4057 15.0152 39.3342 15.5271 37.3613C16.039 35.3391 16.4798 33.2429 16.8495 31.0728C17.0485 29.9383 17.3187 28.6313 17.6599 27.1517C18.0296 25.672 18.2145 24.1184 18.2145 22.4908C18.2145 20.2713 18.0012 18.0764 17.5746 15.9063C17.1765 13.7361 16.5509 11.9359 15.6977 10.5055C14.873 9.0259 13.8208 8.28607 12.5411 8.28607C11.2899 8.28607 10.2234 8.72997 9.34185 9.61776C8.48872 10.5055 7.74933 11.6153 7.1237 12.947C6.5265 14.2787 5.92931 15.6104 5.33211 16.942C4.84866 18.0765 4.40788 19.1615 4.00975 20.1973C3.64005 21.233 3.35567 22.4168 3.15661 23.7485C2.95754 25.0802 2.85801 26.7571 2.85801 28.7793C2.85801 30.7522 2.87223 32.4044 2.90067 33.7361C2.95754 35.0185 3.08551 36.1036 3.28458 36.9914C3.51208 37.8298 3.89599 38.5697 4.43631 39.2109C4.97663 39.8027 5.74446 40.4192 6.73979 41.0604C6.99573 41.2577 7.32276 41.3564 7.72089 41.3564C8.31809 41.3564 8.88685 41.1344 9.42717 40.6905C9.99593 40.1973 10.4225 39.6794 10.7069 39.1369C11.0197 38.4957 11.3609 37.8298 11.7306 37.1393C12.1288 36.4488 12.47 35.6597 12.7544 34.7719C13.0672 33.8841 13.2236 32.873 13.2236 31.7386C13.2236 30.8015 13.1241 29.815 12.925 28.7793C12.726 27.6942 12.4416 26.7818 12.0719 26.0419C11.7306 25.2528 11.3183 24.8582 10.8348 24.8582C10.4652 24.8582 10.2092 25.0801 10.067 25.524C9.92483 25.9186 9.75421 26.1159 9.55514 26.1159C9.35607 26.1159 9.18545 25.9679 9.04326 25.672C8.90107 25.3268 8.90107 24.9568 9.04326 24.5623C9.27076 23.9704 9.48404 23.5512 9.68311 23.3046C9.88218 23.0086 10.2661 22.8607 10.8348 22.8607C11.4605 22.8607 12.0292 23.3292 12.5411 24.2663C13.0814 25.2035 13.508 26.3625 13.8208 27.7435C14.1621 29.1245 14.3327 30.4562 14.3327 31.7386C14.3327 33.021 14.1763 34.2047 13.8635 35.2898C13.5507 36.3255 13.181 37.2626 12.7544 38.1011C12.3278 38.9396 11.9439 39.7287 11.6027 40.4686C11.1477 41.3564 10.4509 42.0222 9.51248 42.4661C8.57403 42.8607 7.60714 43.058 6.61182 43.058C4.84866 43.058 3.48364 42.5401 2.51676 41.5043C1.54987 40.4686 0.881575 38.9149 0.511883 36.8434C0.170628 34.7719 0 32.2318 0 29.2232C0 27.0037 0.156409 25.0801 0.469226 23.4525C0.810481 21.7756 1.23705 20.2959 1.74893 19.0136C2.26081 17.6819 2.78692 16.3995 3.32724 15.1665C3.98131 13.6375 4.74913 12.2072 5.63071 10.8755C6.54072 9.54377 7.56449 8.45869 8.702 7.62023C9.83952 6.73243 11.1192 6.28854 12.5411 6.28854C13.6218 6.28854 14.5887 6.78175 15.4418 7.76819C16.2949 8.7053 17.0059 9.96301 17.5746 11.5413C18.1718 13.1196 18.6126 14.8705 18.897 16.7941C19.2098 18.7176 19.3662 20.6165 19.3662 22.4908C19.3662 23.3785 19.2809 24.439 19.1103 25.672C18.9397 26.9051 18.7264 28.1628 18.4704 29.4451C18.2429 30.7275 18.0154 31.9359 17.7879 33.0703C17.5604 34.1554 17.3898 35.0185 17.276 35.6597C16.9917 37.1887 16.6931 38.3724 16.3802 39.2109C16.0959 40 15.8257 40.7152 15.5698 41.3564C15.3423 41.9975 15.1574 42.8113 15.0152 43.7978C14.873 44.7842 14.8019 46.2392 14.8019 48.1628C14.8019 49.6424 14.9015 51.1467 15.1005 52.6757C15.2996 54.2047 15.6409 55.4624 16.1243 56.4488C16.6077 57.4846 17.276 58.0025 18.1292 58.0025C18.2145 58.0025 18.3851 57.9038 18.6411 57.7065C18.9254 57.5586 19.1956 57.3613 19.4515 57.1147C19.7359 56.9174 19.935 56.7941 20.0487 56.7448C21.2147 55.7583 22.0963 54.328 22.6935 52.4538C23.3191 50.5795 23.8594 48.6067 24.3144 46.5351L24.3997 46.1652C24.1722 44.9815 23.9732 43.8471 23.8025 42.762C23.6603 41.6276 23.5466 40.6165 23.4613 39.7287V34.6239C23.6319 32.651 23.7883 31.0234 23.9305 29.7411C24.0727 28.4094 24.3429 26.979 24.741 25.4501C24.8832 24.9075 25.1107 24.291 25.4235 23.6005C25.7363 22.8607 26.0633 22.4908 26.4046 22.4908C26.8596 22.4908 27.2435 22.91 27.5563 23.7485C27.8976 24.5376 28.1678 25.4747 28.3668 26.5598C28.5659 27.6449 28.6654 28.582 28.6654 29.3711C28.6654 32.5277 28.3526 35.6843 27.727 38.8409C27.1013 41.9975 26.4899 44.8829 25.8927 47.4969L25.7221 48.2367C26.0349 49.9137 26.4757 51.3933 27.0445 52.6757C27.6132 53.9581 28.3384 54.5993 29.22 54.5993C29.4475 54.5993 29.6323 54.4513 29.7745 54.1554C29.9167 53.8101 30.0447 53.5142 30.1584 53.2676C30.6134 52.2318 30.8978 51.0728 31.0115 49.7904C31.1253 48.508 31.1964 47.1763 31.2248 45.7953C31.2533 44.365 31.3528 42.91 31.5234 41.4303C31.7225 39.852 31.9216 38.1258 32.1206 36.2515C32.3481 34.328 32.5756 32.4044 32.8031 30.4809C33.0591 28.5573 33.315 26.8311 33.571 25.3021C33.8838 23.4772 34.1113 21.455 34.2535 19.2355C34.3957 16.9667 34.5378 14.7226 34.68 12.5031C34.8507 10.2343 35.1066 8.16276 35.4479 6.28854C35.8176 4.36498 36.3721 2.83601 37.1115 1.7016C37.8509 0.567201 38.8746 0 40.1828 0C40.78 0 41.3345 0.394575 41.8464 1.18373C42.3867 1.92355 42.6569 2.78668 42.6569 3.77312ZM27.2151 29.7411C27.2151 29.3465 27.2293 29.0259 27.2577 28.7793C27.3146 28.4834 27.3431 28.2367 27.3431 28.0395C27.3431 27.6449 27.144 27.4476 26.7459 27.4476C26.5752 27.4476 26.3904 27.5462 26.1913 27.7435C25.9923 27.9408 25.8643 28.1628 25.8074 28.4094C25.523 29.3465 25.324 30.1356 25.2102 30.7768C25.0965 31.418 25.0111 32.1085 24.9543 32.8483C24.8974 33.5388 24.8121 34.5253 24.6983 35.8076L24.8263 41.4303C24.8832 41.7263 24.9258 42.0469 24.9543 42.3921C24.9827 42.7374 25.0111 43.0826 25.0396 43.4279C25.5515 41.3564 26.0349 39.1615 26.4899 36.8434C26.9734 34.5253 27.2151 32.1578 27.2151 29.7411Z" fill="#F5F5F5"/>
<path d="M54.7258 39.2109C54.7258 40.148 54.7115 40.9618 54.6831 41.6523C54.6831 42.2935 54.6262 43.058 54.5125 43.9457C54.3987 45.0308 54.1854 46.3379 53.8726 47.8668C53.5598 49.3465 53.1475 50.8261 52.6356 52.3058C52.1237 53.7361 51.5123 54.9445 50.8013 55.931C50.0904 56.9174 49.2799 57.4106 48.3699 57.4106C47.4314 57.4106 46.4503 57.1887 45.4266 56.7448C44.4028 56.3009 43.4359 55.6104 42.5259 54.6732C41.6443 53.6868 40.9192 52.4291 40.3504 50.9001C39.7816 49.3218 39.3835 47.5216 39.156 45.4994C38.9285 43.4279 38.8148 41.5043 38.8148 39.7287C38.8148 38.1011 38.9712 36.3009 39.284 34.328C39.5968 32.3058 40.0376 30.3329 40.6063 28.4094C41.1751 26.4365 41.8576 24.6856 42.6539 23.1566C43.4501 21.6276 44.3317 20.4932 45.2986 19.7534C45.6683 19.5068 46.237 19.2602 47.0049 19.0136C47.8011 18.767 48.5832 18.6437 49.351 18.6437C50.0335 18.6437 50.6165 18.7916 51.0999 19.0875C51.6118 19.3342 51.8678 19.8027 51.8678 20.4932C51.8678 20.9864 51.7256 21.5783 51.4412 22.2688C51.3559 22.4661 51.2137 22.688 51.0146 22.9346C50.8156 23.1319 50.6591 23.2306 50.5454 23.2306C50.4601 23.2306 50.4174 23.1566 50.4174 23.0086C50.4174 22.91 50.4459 22.7374 50.5027 22.4908C50.5596 22.2441 50.6734 21.9236 50.844 21.529C50.9577 21.233 50.9151 20.8385 50.716 20.3453C50.5454 19.852 50.0904 19.6054 49.351 19.6054C48.9529 19.6054 48.441 19.7287 47.8154 19.9753C47.2182 20.222 46.493 20.6412 45.6399 21.233C44.7867 21.8249 44.0189 22.8113 43.3364 24.1924C42.6823 25.5734 42.1135 27.1763 41.6301 29.0012C41.1751 30.7768 40.8196 32.6017 40.5637 34.476C40.3362 36.3502 40.2224 38.0764 40.2224 39.6547C40.2224 41.233 40.2366 43.0086 40.2651 44.9815C40.322 46.9544 40.6063 48.6313 41.1182 50.0123C41.8576 52.0345 42.9098 53.5388 44.2748 54.5253C45.6683 55.4624 47.0333 55.931 48.3699 55.931C49.0808 55.931 49.7065 55.4624 50.2468 54.5253C50.7871 53.5388 51.2421 52.3058 51.6118 50.8261C52.0099 49.3465 52.337 47.8422 52.5929 46.3132C52.8489 44.7349 53.0337 43.3785 53.1475 42.2441C53.2328 41.4057 53.2897 40.6658 53.3181 40.0247C53.3465 39.3835 53.3607 38.6437 53.3607 37.8052C53.3607 34.0567 52.9057 31.0974 51.9957 28.9273C51.0857 26.7078 49.6212 25.598 47.6021 25.598C47.0333 25.598 46.5499 25.9926 46.1517 26.7818C45.7536 27.5709 45.4266 28.5573 45.1706 29.7411C44.9431 30.9248 44.7725 32.1578 44.6587 33.4402C44.545 34.6732 44.4881 35.7583 44.4881 36.6954C44.4881 37.9285 44.7014 39.1369 45.128 40.3206C45.5545 41.455 46.1233 42.0222 46.8342 42.0222C47.7727 42.0222 48.5405 41.5536 49.1377 40.6165C49.7349 39.6301 50.0335 38.397 50.0335 36.9174C50.0335 36.0789 49.8629 35.3391 49.5216 34.6979C49.2088 34.0567 48.8107 33.7361 48.3272 33.7361C48.1282 33.7361 47.9291 33.8348 47.73 34.0321C47.531 34.2293 47.4314 34.4513 47.4314 34.6979V34.9199C47.4314 35.3144 47.3746 35.5117 47.2608 35.5117C47.0617 35.5117 46.9622 35.1418 46.9622 34.402C46.9622 33.8101 47.076 33.3169 47.3035 32.9223C47.5594 32.4784 47.9007 32.2565 48.3272 32.2565C49.0951 32.2565 49.7065 32.725 50.1615 33.6621C50.6449 34.5993 50.8866 35.6843 50.8866 36.9174C50.8866 38.8903 50.5027 40.4932 49.7349 41.7263C48.9671 42.91 48.0002 43.5018 46.8342 43.5018C46.1802 43.5018 45.4977 43.1073 44.7867 42.3181C44.1042 41.529 43.5212 40.5672 43.0378 39.4328C42.5828 38.2491 42.3553 37.1393 42.3553 36.1036C42.3553 35.2158 42.469 34.106 42.6965 32.7744C42.9525 31.4427 43.3079 30.111 43.7629 28.7793C44.218 27.4476 44.7725 26.3379 45.4266 25.4501C46.0806 24.5623 46.8058 24.1184 47.6021 24.1184C49.1946 24.1184 50.517 24.8335 51.5692 26.2639C52.6214 27.6942 53.4034 29.5684 53.9153 31.8866C54.4556 34.1554 54.7258 36.5968 54.7258 39.2109Z" fill="#F5F5F5"/>
<path d="M74.2629 39.2109C74.2629 40.148 74.2487 40.9618 74.2203 41.6523C74.2203 42.2935 74.1634 43.058 74.0497 43.9457C73.9359 45.0308 73.7226 46.3379 73.4098 47.8668C73.097 49.3465 72.6846 50.8261 72.1728 52.3058C71.6609 53.7361 71.0495 54.9445 70.3385 55.931C69.6276 56.9174 68.8171 57.4106 67.9071 57.4106C66.9686 57.4106 65.9875 57.1887 64.9637 56.7448C63.94 56.3009 62.9731 55.6104 62.0631 54.6732C61.1815 53.6868 60.4563 52.4291 59.8876 50.9001C59.3188 49.3218 58.9207 47.5216 58.6932 45.4994C58.4657 43.4279 58.3519 41.5043 58.3519 39.7287C58.3519 38.1011 58.5083 36.3009 58.8212 34.328C59.134 32.3058 59.5748 30.3329 60.1435 28.4094C60.7123 26.4365 61.3948 24.6856 62.1911 23.1566C62.9873 21.6276 63.8689 20.4932 64.8358 19.7534C65.2055 19.5068 65.7742 19.2602 66.5421 19.0136C67.3383 18.767 68.1204 18.6437 68.8882 18.6437C69.5707 18.6437 70.1537 18.7916 70.6371 19.0875C71.149 19.3342 71.4049 19.8027 71.4049 20.4932C71.4049 20.9864 71.2627 21.5783 70.9784 22.2688C70.8931 22.4661 70.7509 22.688 70.5518 22.9346C70.3527 23.1319 70.1963 23.2306 70.0826 23.2306C69.9973 23.2306 69.9546 23.1566 69.9546 23.0086C69.9546 22.91 69.983 22.7374 70.0399 22.4908C70.0968 22.2441 70.2105 21.9236 70.3812 21.529C70.4949 21.233 70.4523 20.8385 70.2532 20.3453C70.0826 19.852 69.6276 19.6054 68.8882 19.6054C68.4901 19.6054 67.9782 19.7287 67.3525 19.9753C66.7553 20.222 66.0302 20.6412 65.177 21.233C64.3239 21.8249 63.5561 22.8113 62.8736 24.1924C62.2195 25.5734 61.6507 27.1763 61.1673 29.0012C60.7123 30.7768 60.3568 32.6017 60.1009 34.476C59.8734 36.3502 59.7596 38.0764 59.7596 39.6547C59.7596 41.233 59.7738 43.0086 59.8023 44.9815C59.8591 46.9544 60.1435 48.6313 60.6554 50.0123C61.3948 52.0345 62.447 53.5388 63.812 54.5253C65.2055 55.4624 66.5705 55.931 67.9071 55.931C68.618 55.931 69.2437 55.4624 69.784 54.5253C70.3243 53.5388 70.7793 52.3058 71.149 50.8261C71.5471 49.3465 71.8742 47.8422 72.1301 46.3132C72.386 44.7349 72.5709 43.3785 72.6846 42.2441C72.77 41.4057 72.8268 40.6658 72.8553 40.0247C72.8837 39.3835 72.8979 38.6437 72.8979 37.8052C72.8979 34.0567 72.4429 31.0974 71.5329 28.9273C70.6229 26.7078 69.1583 25.598 67.1393 25.598C66.5705 25.598 66.087 25.9926 65.6889 26.7818C65.2908 27.5709 64.9637 28.5573 64.7078 29.7411C64.4803 30.9248 64.3097 32.1578 64.1959 33.4402C64.0822 34.6732 64.0253 35.7583 64.0253 36.6954C64.0253 37.9285 64.2386 39.1369 64.6652 40.3206C65.0917 41.455 65.6605 42.0222 66.3714 42.0222C67.3099 42.0222 68.0777 41.5536 68.6749 40.6165C69.2721 39.6301 69.5707 38.397 69.5707 36.9174C69.5707 36.0789 69.4001 35.3391 69.0588 34.6979C68.746 34.0567 68.3479 33.7361 67.8644 33.7361C67.6653 33.7361 67.4663 33.8348 67.2672 34.0321C67.0682 34.2293 66.9686 34.4513 66.9686 34.6979V34.9199C66.9686 35.3144 66.9117 35.5117 66.798 35.5117C66.5989 35.5117 66.4994 35.1418 66.4994 34.402C66.4994 33.8101 66.6132 33.3169 66.8407 32.9223C67.0966 32.4784 67.4378 32.2565 67.8644 32.2565C68.6322 32.2565 69.2437 32.725 69.6987 33.6621C70.1821 34.5993 70.4238 35.6843 70.4238 36.9174C70.4238 38.8903 70.0399 40.4932 69.2721 41.7263C68.5043 42.91 67.5374 43.5018 66.3714 43.5018C65.7174 43.5018 65.0348 43.1073 64.3239 42.3181C63.6414 41.529 63.0584 40.5672 62.575 39.4328C62.12 38.2491 61.8925 37.1393 61.8925 36.1036C61.8925 35.2158 62.0062 34.106 62.2337 32.7744C62.4897 31.4427 62.8451 30.111 63.3001 28.7793C63.7551 27.4476 64.3097 26.3379 64.9637 25.4501C65.6178 24.5623 66.343 24.1184 67.1393 24.1184C68.7318 24.1184 70.0541 24.8335 71.1063 26.2639C72.1585 27.6942 72.9406 29.5684 73.4525 31.8866C73.9928 34.1554 74.2629 36.5968 74.2629 39.2109Z" fill="#F5F5F5"/>
<path d="M105.957 36.0296C105.986 36.4242 106 36.8434 106 37.2873C106 37.6819 106 38.0765 106 38.471C106 40.5919 105.886 42.688 105.659 44.7596C105.431 46.7818 105.076 48.434 104.592 49.7164C104.393 50.2096 104.137 50.9494 103.824 51.9359C103.512 52.9223 103.199 53.6375 102.886 54.0814C101.862 55.561 100.625 56.6954 99.1749 57.4846C97.753 58.3231 96.2884 58.9149 94.7812 59.2602C93.274 59.6054 91.8948 59.7781 90.6435 59.7781C89.3354 59.7781 88.1125 59.3095 86.975 58.3724C85.8659 57.4846 84.7711 56.5228 83.6904 55.4871C83.1217 56.4242 82.4818 57.1887 81.7709 57.7805C81.0884 58.3724 80.349 58.6683 79.5527 58.6683C78.7565 58.6683 77.9744 58.5697 77.2066 58.3724C76.4672 58.2244 75.8558 57.8052 75.3724 57.1147C74.8889 56.4242 74.6472 55.3637 74.6472 53.9334C74.6472 53.1443 74.9174 52.4044 75.4577 51.7139C75.998 50.9741 76.6236 50.4316 77.3346 50.0863C77.5621 49.9877 77.8038 49.9137 78.0597 49.8644C78.3157 49.7657 78.6143 49.7164 78.9555 49.7164C79.183 49.7164 79.4105 49.7411 79.638 49.7904C79.8656 49.8397 80.1215 49.9383 80.4059 50.0863C80.9178 50.3329 81.4154 50.6782 81.8989 51.1221C82.4107 51.5166 82.9084 51.9605 83.3919 52.4538C83.9606 51.4673 84.4583 50.3083 84.8848 48.9766C85.3398 47.6449 85.738 46.2392 86.0792 44.7596C84.9986 44.217 83.9748 43.3046 83.0079 42.0222C82.0411 40.7398 81.2448 39.2355 80.6192 37.5092C80.022 35.7337 79.7234 33.9088 79.7234 32.0345C79.7234 29.6178 80.0504 27.201 80.7045 24.7842C81.3585 22.3674 82.2259 20.148 83.3065 18.1258C84.4156 16.1036 85.6527 14.5006 87.0177 13.3169C88.3827 12.0838 89.7904 11.4673 91.2407 11.4673C93.4589 11.4673 95.4922 12.1085 97.3406 13.3909C99.2176 14.6239 100.824 16.5475 102.161 19.1615C103.526 21.7263 104.521 24.9815 105.147 28.9273C105.261 29.5684 105.403 30.5302 105.573 31.8126C105.744 33.0456 105.872 34.4513 105.957 36.0296ZM103.355 38.2491C103.384 37.5586 103.398 36.8927 103.398 36.2515C103.426 35.561 103.441 34.8952 103.441 34.254C103.441 33.021 103.398 31.8866 103.313 30.8508C103.227 29.815 103.057 28.9519 102.801 28.2614C102.573 27.6202 102.403 26.979 102.289 26.3379C102.175 25.6967 102.033 24.9815 101.862 24.1924C101.692 23.4032 101.379 22.5154 100.924 21.529C100.298 20.0986 99.5872 18.9642 98.791 18.1258C98.0232 17.2873 97.3122 16.3995 96.6581 15.4624C96.0325 14.5253 95.3216 13.8841 94.5253 13.5388C93.729 13.1443 92.7621 12.947 91.6246 12.947C90.3734 12.947 89.1648 13.5388 87.9988 14.7226C86.8613 15.857 85.8375 17.3859 84.9275 19.3095C84.0459 21.233 83.335 23.3292 82.7947 25.598C82.2828 27.8175 82.0268 30.0123 82.0268 32.1825C82.0268 33.6621 82.1548 35.2404 82.4107 36.9174C82.6667 38.5943 83.1501 40 83.8611 41.1344C84.2023 41.6769 84.5862 42.1208 85.0128 42.4661C85.4678 42.8113 85.9228 43.0826 86.3778 43.2799C86.6053 42.1455 86.8044 41.0358 86.975 39.9507C87.1457 38.8163 87.3021 37.7559 87.4443 36.7694C87.7002 35.1418 88.1125 33.2183 88.6813 30.9988C89.2785 28.73 89.9468 26.6831 90.6862 24.8582C90.5724 24.8089 90.4587 24.7842 90.3449 24.7842C90.2312 24.7349 90.1174 24.7102 90.0037 24.7102C89.634 24.7102 89.2643 24.8089 88.8946 25.0062C88.5249 25.2035 88.141 25.4501 87.7429 25.746C87.4016 26.0419 87.1172 26.5845 86.8897 27.3736C86.6906 28.1134 86.5058 28.8286 86.3352 29.5191C86.193 30.2096 86.0224 30.5549 85.8233 30.5549C85.738 30.5549 85.6242 30.4316 85.482 30.185C85.283 29.7904 85.1834 29.2972 85.1834 28.7053C85.1834 28.2614 85.2403 27.8175 85.3541 27.3736C85.4963 26.8804 85.6527 26.4118 85.8233 25.9679C86.1361 25.1295 86.5058 24.5623 86.9324 24.2663C87.3589 23.9704 87.8424 23.6991 88.3827 23.4525C88.8093 23.3046 89.2643 23.2306 89.7477 23.2306C90.2596 23.2306 90.7715 23.3046 91.2834 23.4525C91.7668 22.4661 92.2645 21.6523 92.7764 21.0111C93.2883 20.3699 93.7717 20.0493 94.2267 20.0493C94.7955 20.0493 95.2789 20.4686 95.677 21.307C95.8477 21.603 95.933 21.9482 95.933 22.3428C95.933 22.688 95.8477 22.8607 95.677 22.8607C95.5348 22.8607 95.3784 22.688 95.2078 22.3428C94.895 21.8002 94.568 21.529 94.2267 21.529C93.9139 21.529 93.5868 21.7509 93.2456 22.1948C92.9043 22.6387 92.5773 23.2306 92.2645 23.9704C92.9186 24.365 93.3593 24.8089 93.5868 25.3021C94.2125 26.5351 94.6817 27.8175 94.9945 29.1492C95.3358 30.4316 95.5064 31.7879 95.5064 33.2183C95.5064 34.402 95.3784 35.709 95.1225 37.1393C94.1272 42.5647 91.6957 45.2774 87.8282 45.2774C87.7429 45.2774 87.6575 45.2774 87.5722 45.2774C87.4869 45.2281 87.4016 45.2035 87.3163 45.2035C86.975 46.7324 86.5769 48.2367 86.1219 49.7164C85.6953 51.1467 85.1977 52.4784 84.6289 53.7115C85.5389 54.6486 86.4774 55.4871 87.4443 56.2269C88.4396 56.9667 89.506 57.3366 90.6435 57.3366C92.6626 57.3366 94.5395 56.6215 96.2742 55.1911C98.0089 53.7115 99.5872 51.9605 101.009 49.9383C101.834 48.7546 102.417 47.127 102.758 45.0555C103.099 42.9346 103.298 40.6658 103.355 38.2491ZM93.8001 36.6215C93.9708 35.635 94.0561 34.6979 94.0561 33.8101C94.0561 32.3798 93.8854 31.0234 93.5442 29.7411C93.2314 28.4587 92.8475 27.4229 92.3925 26.6338C92.1365 26.1899 91.8806 25.82 91.6246 25.524C90.999 27.349 90.4302 29.4205 89.9184 31.7386C89.4349 34.0074 89.0794 35.8816 88.8519 37.3613C88.7097 38.2984 88.5391 39.3095 88.34 40.3946C88.141 41.4797 87.9135 42.5894 87.6575 43.7238C87.7997 43.7238 87.9419 43.7485 88.0841 43.7978C88.2263 43.7978 88.3543 43.7978 88.468 43.7978C90.0605 43.7978 91.2549 43.1319 92.0512 41.8002C92.8475 40.4686 93.4304 38.7423 93.8001 36.6215ZM82.1122 54.0074C81.4296 53.4155 80.7045 52.8977 79.9366 52.4538C79.3394 52.1578 78.8844 52.0099 78.5716 52.0099C78.2304 52.0099 78.0171 52.1825 77.9318 52.5277C77.8749 52.8237 77.8465 53.1936 77.8465 53.6375C77.8465 54.328 77.8749 54.7965 77.9318 55.0432C78.0171 55.2898 78.1308 55.4131 78.273 55.4131C78.4437 55.4131 78.6712 55.3391 78.9555 55.1911C79.2684 54.9938 79.6238 54.8952 80.022 54.8952C80.4201 54.8952 80.7898 54.8212 81.131 54.6732C81.5007 54.476 81.8278 54.254 82.1122 54.0074Z" fill="#F5F5F5"/>
</svg>
